<svg width="43" height="44" viewBox="0 0 43 44" fill="none" xmlns="http://www.w3.org/2000/svg">
<mask id="path-1-inside-1" fill="white">
<path d="M36.7104 8.91104C34.4709 6.43597 31.6961 4.56548 28.6292 3.42344H36.5667C36.8383 4.24925 37.6161 4.84712 38.5315 4.84712C39.6722 4.84712 40.5997 3.91926 40.5997 2.77891C40.5997 1.63856 39.6719 0.711031 38.5315 0.711031C37.6164 0.711031 36.8386 1.3089 36.567 2.13438H24.2272V0.643557C24.2272 0.287385 23.9389 -0.000976562 23.5827 -0.000976562H19.3116C18.9558 -0.000976562 18.6671 0.287385 18.6671 0.643557V2.13471H6.32732C6.05574 1.3089 5.27794 0.711031 4.3625 0.711031C3.22215 0.711031 2.29429 1.63889 2.29429 2.77925C2.29429 3.9196 3.22215 4.84712 4.3625 4.84712C5.27794 4.84712 6.05574 4.24925 6.32732 3.42378H14.2648C11.1979 4.56581 8.42306 6.43597 6.18398 8.91104C2.75754 12.6987 0.870605 17.5995 0.870605 22.7108C0.870605 23.0669 1.1593 23.3553 1.51514 23.3553C1.87098 23.3553 2.15967 23.0669 2.15967 22.7108C2.15967 13.0643 9.20691 4.98274 18.6671 3.62352V4.9146C18.6671 5.27077 18.9558 5.55913 19.3116 5.55913H23.5827C23.9389 5.55913 24.2272 5.27077 24.2272 4.9146V3.62352C33.6874 4.98274 40.7343 13.0643 40.7343 22.7108C40.7343 23.0669 41.023 23.3553 41.3789 23.3553C41.735 23.3553 42.0234 23.0669 42.0234 22.7108C42.0234 17.5995 40.1365 12.6987 36.7104 8.91104ZM38.5315 2.0001C38.9612 2.0001 39.3106 2.34956 39.3106 2.77891C39.3106 3.2086 38.9612 3.55806 38.5315 3.55806C38.1018 3.55806 37.7524 3.2086 37.7524 2.77891C37.7524 2.34956 38.1018 2.0001 38.5315 2.0001ZM4.3625 3.55806C3.93281 3.55806 3.58335 3.2086 3.58335 2.77925C3.58335 2.34956 3.93281 2.0001 4.3625 2.0001C4.79219 2.0001 5.14165 2.34956 5.14165 2.77925C5.14165 3.2086 4.79219 3.55806 4.3625 3.55806ZM19.9562 4.27006V1.28809H22.9382V4.27006H19.9562Z"/>
<path d="M23.4336 7.44795C23.3198 7.24385 23.1047 7.11729 22.871 7.11729H20.0233C19.79 7.11729 19.5745 7.24385 19.4607 7.44795L10.9183 22.7526C10.8649 22.8486 10.8367 22.9567 10.8367 23.0668V23.7788C10.8367 23.9007 10.8713 24.0198 10.9364 24.1229L14.5831 29.8965H12.1929C11.8371 29.8965 11.5484 30.1849 11.5484 30.541C11.5484 30.8969 11.8371 31.1856 12.1929 31.1856H12.2604V33.3884C12.2604 33.7446 12.5487 34.0329 12.9049 34.0329H13.6837V36.2361C13.6837 36.5919 13.9724 36.8806 14.3283 36.8806H15.1077V43.3545C15.1077 43.7107 15.3964 43.999 15.7523 43.999H27.1421C27.4979 43.999 27.7866 43.7107 27.7866 43.3545V36.8806H28.5657C28.9216 36.8806 29.2103 36.5919 29.2103 36.2361V34.0329H29.9894C30.3453 34.0329 30.6339 33.7446 30.6339 33.3884V31.1856H30.7014C31.0573 31.1856 31.346 30.8969 31.346 30.541C31.346 30.1849 31.0573 29.8965 30.7014 29.8965H29.9911C29.9904 29.8965 29.9901 29.8965 29.9894 29.8965C29.9887 29.8965 29.9884 29.8965 29.9877 29.8965H28.3113L31.9579 24.1229C32.0231 24.0198 32.0576 23.9007 32.0576 23.7788V23.0668C32.0576 22.9567 32.0294 22.8486 31.9757 22.7526L23.4336 7.44795ZM21.4473 21.2198C21.877 21.2198 22.2265 21.5693 22.2265 21.999C22.2265 22.4286 21.877 22.7781 21.4473 22.7781C21.0176 22.7781 20.6682 22.4286 20.6682 21.999C20.6682 21.5693 21.0176 21.2198 21.4473 21.2198ZM27.9212 35.5912H20.8495C20.4936 35.5912 20.2049 35.8799 20.2049 36.2358C20.2049 36.5919 20.4936 36.8803 20.8495 36.8803H26.4975V38.4386H25.718C25.3622 38.4386 25.0735 38.727 25.0735 39.0831C25.0735 39.4393 25.3622 39.7277 25.718 39.7277H26.4972V42.71H16.3968V39.728H17.176C17.5318 39.728 17.8205 39.4396 17.8205 39.0835C17.8205 38.7273 17.5318 38.4389 17.176 38.4389H16.3968V36.8803H18.0954C18.4516 36.8803 18.74 36.5919 18.74 36.2358C18.74 35.8799 18.4516 35.5912 18.0954 35.5912H14.9728V34.0329H27.9212V35.5912ZM29.3449 32.7439H13.5495V31.1856H29.3449V32.7439ZM30.7686 23.5922L29.4842 25.6255H27.8537C27.4979 25.6255 27.2092 25.9138 27.2092 26.27C27.2092 26.6262 27.4979 26.9145 27.8537 26.9145H28.6701L26.7866 29.8965H22.0915V28.4054C22.0915 28.0495 21.8032 27.7608 21.447 27.7608C21.0912 27.7608 20.8025 28.0495 20.8025 28.4054V29.8965H16.1074L14.2242 26.9145H15.0403C15.3964 26.9145 15.6848 26.6262 15.6848 26.27C15.6848 25.9138 15.3964 25.6255 15.0403 25.6255H13.4098L12.1258 23.5922V23.2343L20.402 8.40636H20.8025V20.0341C19.977 20.3057 19.3788 21.0835 19.3788 21.9986C19.3788 23.1393 20.3066 24.0672 21.447 24.0672C22.5877 24.0672 23.5155 23.1393 23.5155 21.9986C23.5155 21.0835 22.9173 20.3054 22.0919 20.0341V8.40636H22.4924L30.7686 23.2343V23.5922Z"/>
</mask>
<path d="M36.7104 8.91104C34.4709 6.43597 31.6961 4.56548 28.6292 3.42344H36.5667C36.8383 4.24925 37.6161 4.84712 38.5315 4.84712C39.6722 4.84712 40.5997 3.91926 40.5997 2.77891C40.5997 1.63856 39.6719 0.711031 38.5315 0.711031C37.6164 0.711031 36.8386 1.3089 36.567 2.13438H24.2272V0.643557C24.2272 0.287385 23.9389 -0.000976562 23.5827 -0.000976562H19.3116C18.9558 -0.000976562 18.6671 0.287385 18.6671 0.643557V2.13471H6.32732C6.05574 1.3089 5.27794 0.711031 4.3625 0.711031C3.22215 0.711031 2.29429 1.63889 2.29429 2.77925C2.29429 3.9196 3.22215 4.84712 4.3625 4.84712C5.27794 4.84712 6.05574 4.24925 6.32732 3.42378H14.2648C11.1979 4.56581 8.42306 6.43597 6.18398 8.91104C2.75754 12.6987 0.870605 17.5995 0.870605 22.7108C0.870605 23.0669 1.1593 23.3553 1.51514 23.3553C1.87098 23.3553 2.15967 23.0669 2.15967 22.7108C2.15967 13.0643 9.20691 4.98274 18.6671 3.62352V4.9146C18.6671 5.27077 18.9558 5.55913 19.3116 5.55913H23.5827C23.9389 5.55913 24.2272 5.27077 24.2272 4.9146V3.62352C33.6874 4.98274 40.7343 13.0643 40.7343 22.7108C40.7343 23.0669 41.023 23.3553 41.3789 23.3553C41.735 23.3553 42.0234 23.0669 42.0234 22.7108C42.0234 17.5995 40.1365 12.6987 36.7104 8.91104ZM38.5315 2.0001C38.9612 2.0001 39.3106 2.34956 39.3106 2.77891C39.3106 3.2086 38.9612 3.55806 38.5315 3.55806C38.1018 3.55806 37.7524 3.2086 37.7524 2.77891C37.7524 2.34956 38.1018 2.0001 38.5315 2.0001ZM4.3625 3.55806C3.93281 3.55806 3.58335 3.2086 3.58335 2.77925C3.58335 2.34956 3.93281 2.0001 4.3625 2.0001C4.79219 2.0001 5.14165 2.34956 5.14165 2.77925C5.14165 3.2086 4.79219 3.55806 4.3625 3.55806ZM19.9562 4.27006V1.28809H22.9382V4.27006H19.9562Z" fill="white"/>
<path d="M23.4336 7.44795C23.3198 7.24385 23.1047 7.11729 22.871 7.11729H20.0233C19.79 7.11729 19.5745 7.24385 19.4607 7.44795L10.9183 22.7526C10.8649 22.8486 10.8367 22.9567 10.8367 23.0668V23.7788C10.8367 23.9007 10.8713 24.0198 10.9364 24.1229L14.5831 29.8965H12.1929C11.8371 29.8965 11.5484 30.1849 11.5484 30.541C11.5484 30.8969 11.8371 31.1856 12.1929 31.1856H12.2604V33.3884C12.2604 33.7446 12.5487 34.0329 12.9049 34.0329H13.6837V36.2361C13.6837 36.5919 13.9724 36.8806 14.3283 36.8806H15.1077V43.3545C15.1077 43.7107 15.3964 43.999 15.7523 43.999H27.1421C27.4979 43.999 27.7866 43.7107 27.7866 43.3545V36.8806H28.5657C28.9216 36.8806 29.2103 36.5919 29.2103 36.2361V34.0329H29.9894C30.3453 34.0329 30.6339 33.7446 30.6339 33.3884V31.1856H30.7014C31.0573 31.1856 31.346 30.8969 31.346 30.541C31.346 30.1849 31.0573 29.8965 30.7014 29.8965H29.9911C29.9904 29.8965 29.9901 29.8965 29.9894 29.8965C29.9887 29.8965 29.9884 29.8965 29.9877 29.8965H28.3113L31.9579 24.1229C32.0231 24.0198 32.0576 23.9007 32.0576 23.7788V23.0668C32.0576 22.9567 32.0294 22.8486 31.9757 22.7526L23.4336 7.44795ZM21.4473 21.2198C21.877 21.2198 22.2265 21.5693 22.2265 21.999C22.2265 22.4286 21.877 22.7781 21.4473 22.7781C21.0176 22.7781 20.6682 22.4286 20.6682 21.999C20.6682 21.5693 21.0176 21.2198 21.4473 21.2198ZM27.9212 35.5912H20.8495C20.4936 35.5912 20.2049 35.8799 20.2049 36.2358C20.2049 36.5919 20.4936 36.8803 20.8495 36.8803H26.4975V38.4386H25.718C25.3622 38.4386 25.0735 38.727 25.0735 39.0831C25.0735 39.4393 25.3622 39.7277 25.718 39.7277H26.4972V42.71H16.3968V39.728H17.176C17.5318 39.728 17.8205 39.4396 17.8205 39.0835C17.8205 38.7273 17.5318 38.4389 17.176 38.4389H16.3968V36.8803H18.0954C18.4516 36.8803 18.74 36.5919 18.74 36.2358C18.74 35.8799 18.4516 35.5912 18.0954 35.5912H14.9728V34.0329H27.9212V35.5912ZM29.3449 32.7439H13.5495V31.1856H29.3449V32.7439ZM30.7686 23.5922L29.4842 25.6255H27.8537C27.4979 25.6255 27.2092 25.9138 27.2092 26.27C27.2092 26.6262 27.4979 26.9145 27.8537 26.9145H28.6701L26.7866 29.8965H22.0915V28.4054C22.0915 28.0495 21.8032 27.7608 21.447 27.7608C21.0912 27.7608 20.8025 28.0495 20.8025 28.4054V29.8965H16.1074L14.2242 26.9145H15.0403C15.3964 26.9145 15.6848 26.6262 15.6848 26.27C15.6848 25.9138 15.3964 25.6255 15.0403 25.6255H13.4098L12.1258 23.5922V23.2343L20.402 8.40636H20.8025V20.0341C19.977 20.3057 19.3788 21.0835 19.3788 21.9986C19.3788 23.1393 20.3066 24.0672 21.447 24.0672C22.5877 24.0672 23.5155 23.1393 23.5155 21.9986C23.5155 21.0835 22.9173 20.3054 22.0919 20.0341V8.40636H22.4924L30.7686 23.2343V23.5922Z" fill="white"/>
<path d="M36.7104 8.91104C34.4709 6.43597 31.6961 4.56548 28.6292 3.42344H36.5667C36.8383 4.24925 37.6161 4.84712 38.5315 4.84712C39.6722 4.84712 40.5997 3.91926 40.5997 2.77891C40.5997 1.63856 39.6719 0.711031 38.5315 0.711031C37.6164 0.711031 36.8386 1.3089 36.567 2.13438H24.2272V0.643557C24.2272 0.287385 23.9389 -0.000976562 23.5827 -0.000976562H19.3116C18.9558 -0.000976562 18.6671 0.287385 18.6671 0.643557V2.13471H6.32732C6.05574 1.3089 5.27794 0.711031 4.3625 0.711031C3.22215 0.711031 2.29429 1.63889 2.29429 2.77925C2.29429 3.9196 3.22215 4.84712 4.3625 4.84712C5.27794 4.84712 6.05574 4.24925 6.32732 3.42378H14.2648C11.1979 4.56581 8.42306 6.43597 6.18398 8.91104C2.75754 12.6987 0.870605 17.5995 0.870605 22.7108C0.870605 23.0669 1.1593 23.3553 1.51514 23.3553C1.87098 23.3553 2.15967 23.0669 2.15967 22.7108C2.15967 13.0643 9.20691 4.98274 18.6671 3.62352V4.9146C18.6671 5.27077 18.9558 5.55913 19.3116 5.55913H23.5827C23.9389 5.55913 24.2272 5.27077 24.2272 4.9146V3.62352C33.6874 4.98274 40.7343 13.0643 40.7343 22.7108C40.7343 23.0669 41.023 23.3553 41.3789 23.3553C41.735 23.3553 42.0234 23.0669 42.0234 22.7108C42.0234 17.5995 40.1365 12.6987 36.7104 8.91104ZM38.5315 2.0001C38.9612 2.0001 39.3106 2.34956 39.3106 2.77891C39.3106 3.2086 38.9612 3.55806 38.5315 3.55806C38.1018 3.55806 37.7524 3.2086 37.7524 2.77891C37.7524 2.34956 38.1018 2.0001 38.5315 2.0001ZM4.3625 3.55806C3.93281 3.55806 3.58335 3.2086 3.58335 2.77925C3.58335 2.34956 3.93281 2.0001 4.3625 2.0001C4.79219 2.0001 5.14165 2.34956 5.14165 2.77925C5.14165 3.2086 4.79219 3.55806 4.3625 3.55806ZM19.9562 4.27006V1.28809H22.9382V4.27006H19.9562Z" stroke="white" stroke-width="2" mask="url(#path-1-inside-1)"/>
<path d="M23.4336 7.44795C23.3198 7.24385 23.1047 7.11729 22.871 7.11729H20.0233C19.79 7.11729 19.5745 7.24385 19.4607 7.44795L10.9183 22.7526C10.8649 22.8486 10.8367 22.9567 10.8367 23.0668V23.7788C10.8367 23.9007 10.8713 24.0198 10.9364 24.1229L14.5831 29.8965H12.1929C11.8371 29.8965 11.5484 30.1849 11.5484 30.541C11.5484 30.8969 11.8371 31.1856 12.1929 31.1856H12.2604V33.3884C12.2604 33.7446 12.5487 34.0329 12.9049 34.0329H13.6837V36.2361C13.6837 36.5919 13.9724 36.8806 14.3283 36.8806H15.1077V43.3545C15.1077 43.7107 15.3964 43.999 15.7523 43.999H27.1421C27.4979 43.999 27.7866 43.7107 27.7866 43.3545V36.8806H28.5657C28.9216 36.8806 29.2103 36.5919 29.2103 36.2361V34.0329H29.9894C30.3453 34.0329 30.6339 33.7446 30.6339 33.3884V31.1856H30.7014C31.0573 31.1856 31.346 30.8969 31.346 30.541C31.346 30.1849 31.0573 29.8965 30.7014 29.8965H29.9911C29.9904 29.8965 29.9901 29.8965 29.9894 29.8965C29.9887 29.8965 29.9884 29.8965 29.9877 29.8965H28.3113L31.9579 24.1229C32.0231 24.0198 32.0576 23.9007 32.0576 23.7788V23.0668C32.0576 22.9567 32.0294 22.8486 31.9757 22.7526L23.4336 7.44795ZM21.4473 21.2198C21.877 21.2198 22.2265 21.5693 22.2265 21.999C22.2265 22.4286 21.877 22.7781 21.4473 22.7781C21.0176 22.7781 20.6682 22.4286 20.6682 21.999C20.6682 21.5693 21.0176 21.2198 21.4473 21.2198ZM27.9212 35.5912H20.8495C20.4936 35.5912 20.2049 35.8799 20.2049 36.2358C20.2049 36.5919 20.4936 36.8803 20.8495 36.8803H26.4975V38.4386H25.718C25.3622 38.4386 25.0735 38.727 25.0735 39.0831C25.0735 39.4393 25.3622 39.7277 25.718 39.7277H26.4972V42.71H16.3968V39.728H17.176C17.5318 39.728 17.8205 39.4396 17.8205 39.0835C17.8205 38.7273 17.5318 38.4389 17.176 38.4389H16.3968V36.8803H18.0954C18.4516 36.8803 18.74 36.5919 18.74 36.2358C18.74 35.8799 18.4516 35.5912 18.0954 35.5912H14.9728V34.0329H27.9212V35.5912ZM29.3449 32.7439H13.5495V31.1856H29.3449V32.7439ZM30.7686 23.5922L29.4842 25.6255H27.8537C27.4979 25.6255 27.2092 25.9138 27.2092 26.27C27.2092 26.6262 27.4979 26.9145 27.8537 26.9145H28.6701L26.7866 29.8965H22.0915V28.4054C22.0915 28.0495 21.8032 27.7608 21.447 27.7608C21.0912 27.7608 20.8025 28.0495 20.8025 28.4054V29.8965H16.1074L14.2242 26.9145H15.0403C15.3964 26.9145 15.6848 26.6262 15.6848 26.27C15.6848 25.9138 15.3964 25.6255 15.0403 25.6255H13.4098L12.1258 23.5922V23.2343L20.402 8.40636H20.8025V20.0341C19.977 20.3057 19.3788 21.0835 19.3788 21.9986C19.3788 23.1393 20.3066 24.0672 21.447 24.0672C22.5877 24.0672 23.5155 23.1393 23.5155 21.9986C23.5155 21.0835 22.9173 20.3054 22.0919 20.0341V8.40636H22.4924L30.7686 23.2343V23.5922Z" stroke="white" stroke-width="2" mask="url(#path-1-inside-1)"/>
</svg>
