<svg width="38" height="44" viewBox="0 0 38 44" fill="none" xmlns="http://www.w3.org/2000/svg">
<path d="M21.3697 -0.000976562C12.3791 -0.000976562 5.0647 7.31345 5.0647 16.304V18.9778L0.52478 26.7914C0.467712 26.8897 0.4375 27.0015 0.4375 27.1153V29.8291C0.4375 30.1852 0.726196 30.4736 1.08203 30.4736H5.0647L5.06503 34.8121C5.06503 36.7376 6.63138 38.304 8.55692 38.304H9.86813C10.224 38.304 10.5123 38.0153 10.5123 37.6595C10.5123 37.3033 10.224 37.0149 9.8678 37.0149H8.55692C7.34204 37.0149 6.3541 36.0266 6.3541 34.8121V30.4736H8.20074C8.55658 30.4736 8.84528 30.1852 8.84528 29.8291V25.558C8.84528 25.2022 8.55658 24.9135 8.20074 24.9135H6.77707C6.4209 24.9135 6.13254 25.2022 6.13254 25.558C6.13254 25.9142 6.4209 26.2026 6.77707 26.2026H7.55621V29.1845H1.72656V27.6263H3.92938C4.28522 27.6263 4.57391 27.3376 4.57391 26.9817C4.57391 26.6255 4.28522 26.3372 3.92938 26.3372H2.27979L6.25809 19.4897C6.31885 19.391 6.35376 19.2752 6.35376 19.1517V16.304C6.35376 8.02444 13.0898 1.28809 21.3697 1.28809C29.6499 1.28809 36.3859 8.02444 36.3859 16.304V21.9987C36.3859 28.1919 32.6822 33.6533 26.9402 35.9467H25.2849C24.9287 35.9467 24.6403 36.2351 24.6403 36.5913C24.6403 36.9474 24.9287 37.2358 25.2849 37.2358H26.4202V42.71H14.54V38.304H16.0308C16.387 38.304 16.6753 38.0156 16.6753 37.6595C16.6753 37.3036 16.387 37.0149 16.0308 37.0149H12.4503C12.0945 37.0149 11.8058 37.3033 11.8058 37.6595C11.8058 38.0153 12.0945 38.304 12.4503 38.304H13.2509V43.3545C13.2509 43.7107 13.5396 43.999 13.8954 43.999H27.0647C27.4205 43.999 27.7092 43.7107 27.7092 43.3545V37.025C30.5559 35.8239 32.9883 33.8513 34.7642 31.2987C36.6682 28.5612 37.675 25.3456 37.675 21.9987V16.304C37.675 7.31345 30.3605 -0.000976562 21.3697 -0.000976562Z" fill="white"/>
<path d="M12.885 15.5923C12.885 17.3319 13.408 19.0033 14.398 20.4263C15.2798 21.6939 16.4729 22.6858 17.8677 23.3163V24.6466H17.8006C17.4444 24.6466 17.156 24.935 17.156 25.2912C17.156 25.647 17.4444 25.9357 17.8006 25.9357H17.8677V27.6937C17.8677 28.0496 18.1564 28.3383 18.5122 28.3383H18.5797V29.8294C18.5797 30.1852 18.8684 30.4739 19.2242 30.4739H23.4953C23.8511 30.4739 24.1398 30.1852 24.1398 29.8294V28.3383H24.2073C24.5631 28.3383 24.8518 28.0496 24.8518 27.6937V25.9357H24.9189C25.2751 25.9357 25.5635 25.647 25.5635 25.2912C25.5635 24.935 25.2751 24.6466 24.9189 24.6466H24.8518V23.3163C26.2466 22.6858 27.4397 21.6939 28.3215 20.4263C29.3112 19.0033 29.8345 17.3319 29.8345 15.5923C29.8345 10.9191 26.0328 7.1174 21.3596 7.1174C16.6867 7.1174 12.885 10.9191 12.885 15.5923ZM19.8688 17.6605H20.381L21.6157 18.8955C21.7366 19.0164 21.9007 19.0845 22.0716 19.0845C22.2425 19.0845 22.4066 19.0164 22.5275 18.8955L22.8507 18.5723V22.2441H19.8688V17.6605ZM22.8507 29.1849H19.8688V28.3383H22.8507V29.1849ZM23.5627 27.0492H19.1568V25.9357H23.5627V27.0492ZM19.1568 24.6466V23.5331H23.5627V24.6466H19.1568ZM21.3599 8.40646C25.3221 8.40646 28.5454 11.6301 28.5454 15.5923C28.5454 18.5145 26.822 21.0957 24.1398 22.2192V16.304C24.1398 15.9481 23.8511 15.6594 23.4953 15.6594C23.1391 15.6594 22.8507 15.9481 22.8507 16.304V16.7491L22.0716 17.5283L21.1038 16.5601C20.9829 16.4393 20.8188 16.3715 20.6479 16.3715H19.8688V16.304C19.8688 15.9481 19.5804 15.6594 19.2242 15.6594C18.8684 15.6594 18.5797 15.9481 18.5797 16.304V22.2192C15.8975 21.0957 14.1741 18.5145 14.1741 15.5923C14.1741 11.6301 17.3974 8.40646 21.3599 8.40646Z" fill="white"/>
<path d="M22.0041 5.62624V3.4909C22.0041 3.13473 21.7158 2.84637 21.3596 2.84637C21.0037 2.84637 20.7151 3.13473 20.7151 3.4909V5.62624C20.7151 5.98241 21.0037 6.27077 21.3596 6.27077C21.7158 6.27077 22.0041 5.98241 22.0041 5.62624Z" fill="white"/>
<path d="M13.1955 6.60545C12.9438 6.35402 12.5356 6.35402 12.2838 6.60545C12.0323 6.85722 12.0323 7.26543 12.2838 7.5172L13.7941 9.02715C13.92 9.15303 14.0848 9.21614 14.2499 9.21614C14.4148 9.21614 14.5796 9.15303 14.7055 9.02715C14.9572 8.77538 14.9572 8.36751 14.7055 8.11574L13.1955 6.60545Z" fill="white"/>
<path d="M11.3049 15.0368H9.16922C8.81339 15.0368 8.52469 15.3255 8.52469 15.6813C8.52469 16.0375 8.81339 16.3258 9.16922 16.3258H11.3049C11.6607 16.3258 11.9494 16.0375 11.9494 15.6813C11.9494 15.3255 11.6607 15.0368 11.3049 15.0368Z" fill="white"/>
<path d="M13.7944 22.3354L12.2841 23.8457C12.0323 24.0975 12.0323 24.5053 12.2841 24.7571C12.41 24.883 12.5748 24.9458 12.7396 24.9458C12.9048 24.9458 13.0696 24.883 13.1955 24.7571L14.7058 23.2471C14.9576 22.9954 14.9576 22.5872 14.7058 22.3354C14.454 22.0836 14.0458 22.084 13.7944 22.3354Z" fill="white"/>
<path d="M28.014 22.3354C27.7623 22.5872 27.7623 22.995 28.014 23.2468L29.524 24.7571C29.6499 24.883 29.815 24.9458 29.9799 24.9458C30.1447 24.9458 30.3098 24.883 30.4357 24.7571C30.6875 24.5053 30.6875 24.0971 30.4357 23.8453L28.9254 22.3354C28.6737 22.0836 28.2658 22.0836 28.014 22.3354Z" fill="white"/>
<path d="M33.5503 16.3258C33.9065 16.3258 34.1948 16.0371 34.1948 15.6813C34.1948 15.3251 33.9065 15.0368 33.5503 15.0368H31.4146C31.0585 15.0368 30.7701 15.3251 30.7701 15.6813C30.7701 16.0371 31.0585 16.3258 31.4146 16.3258H33.5503Z" fill="white"/>
<path d="M29.524 6.60545L28.0137 8.11574C27.7623 8.36751 27.7623 8.77538 28.014 9.02715C28.1396 9.15303 28.3047 9.21581 28.4696 9.21581C28.6344 9.21581 28.7996 9.15303 28.9254 9.02715L30.4354 7.51686C30.6872 7.26509 30.6872 6.85722 30.4354 6.60545C30.184 6.35368 29.7758 6.35368 29.524 6.60545Z" fill="white"/>
</svg>
