<svg width="41" height="34" viewBox="0 0 41 34" fill="none" xmlns="http://www.w3.org/2000/svg">
<mask id="path-1-outside-1" maskUnits="userSpaceOnUse" x="-0.5" y="-0.519165" width="42" height="35" fill="black">
<rect fill="white" x="-0.5" y="-0.519165" width="42" height="35"/>
<path d="M20.8396 24.3282C20.4878 24.3282 20.2026 24.6063 20.2026 24.9493V26.2739C20.2026 26.6169 20.4878 26.8949 20.8396 26.8949C21.1914 26.8949 21.4765 26.6169 21.4765 26.2739V24.9493C21.4765 24.6063 21.1914 24.3282 20.8396 24.3282Z"/>
<path d="M40.1144 15.4299C39.8658 15.1875 39.5354 15.0541 39.1838 15.0541C39.1838 15.0541 39.1837 15.0541 39.1838 15.0541L37.5484 15.0543C37.5277 15.0543 37.5135 15.0316 37.5091 15.0106C37.0597 12.8612 36.0518 10.8348 34.5943 9.15053C33.1855 7.52259 31.3813 6.24229 29.3693 5.43814C29.0448 4.10239 28.3595 2.72521 27.0082 1.68996C25.6999 0.687686 24.3823 0.494819 24.3269 0.487049C24.1444 0.461684 23.959 0.5147 23.8195 0.63269C23.6799 0.75068 23.5998 0.921762 23.5998 1.10183V4.45537H21.2883C20.717 2.54422 18.9055 1.14327 16.7634 1.14327C14.5758 1.14327 12.7319 2.60402 12.2027 4.57748C9.05336 4.99574 6.15586 6.48338 4.00586 8.79633C1.74508 11.2287 0.5 14.3774 0.5 17.6624C0.5 25.0359 4.42617 31.0355 5.62961 32.6985C6.00133 33.2123 6.61016 33.5191 7.2582 33.5191H9.96922C11.0697 33.5191 11.965 32.6462 11.965 31.5732V30.7136C12.651 30.8166 13.348 30.8694 14.0457 30.8694H20.2028V31.5732C20.2028 32.6462 21.0981 33.5191 22.1986 33.5191H25.1765C26.1113 33.5191 26.932 32.8722 27.1279 31.981L27.4548 30.4938C31.641 29.4998 35.0069 26.6364 36.6635 22.9205H39.1837C39.9095 22.9205 40.5 22.3448 40.5 21.6371V16.3377C40.5 15.9947 40.3631 15.6724 40.1144 15.4299ZM16.7633 2.3854C18.6598 2.3854 20.2027 3.8898 20.2027 5.73895C20.2027 6.21182 20.0989 6.67761 19.9033 7.10517H13.6232C13.4277 6.67746 13.3237 6.21182 13.3237 5.73895C13.3237 3.88972 14.8667 2.3854 16.7633 2.3854ZM39.2261 21.6369C39.2261 21.6598 39.2071 21.6784 39.1836 21.6784H37.1423C37.4893 20.6193 37.7028 19.5055 37.7639 18.357C37.7822 18.0145 37.5121 17.7224 37.1608 17.7046C36.8095 17.6873 36.5099 17.9501 36.4917 18.2927C36.2219 23.3651 32.6809 27.696 27.7548 29.1283L28.6448 25.0794C28.7185 24.744 28.4994 24.4139 28.1554 24.342C27.8116 24.27 27.4728 24.4838 27.3991 24.8192L25.8823 31.7206C25.8114 32.043 25.5145 32.277 25.1765 32.277H22.1984C21.8004 32.277 21.4766 31.9613 21.4766 31.5732V28.9235C21.4766 28.5805 21.1914 28.3024 20.8396 28.3024C20.4878 28.3024 20.2027 28.5805 20.2027 28.9235V29.6273H14.0455C13.3467 29.6273 12.6491 29.5687 11.9648 29.455V24.949C11.9648 24.606 11.6797 24.328 11.3279 24.328C10.9761 24.328 10.6909 24.606 10.6909 24.949V31.5732C10.6909 31.9613 10.3671 32.2771 9.96906 32.2771H7.2582C7.02008 32.2771 6.80586 32.1697 6.67055 31.9826C5.52187 30.3949 1.77391 24.6703 1.77391 17.6624C1.77391 14.6862 2.9018 11.8337 4.94977 9.63042C6.82398 7.61392 9.32469 6.29005 12.0519 5.85526C12.0629 6.28083 12.1345 6.70161 12.2629 7.10501H12.0074C11.6556 7.10501 11.3705 7.38304 11.3705 7.72604C11.3705 8.06904 11.6556 8.34707 12.0074 8.34707H21.5191C21.8709 8.34707 22.1561 8.06904 22.1561 7.72604C22.1561 7.38304 21.8709 7.10501 21.5191 7.10501H21.2636C21.4038 6.66482 21.4766 6.20405 21.4766 5.7388C21.4766 5.72486 21.4757 5.71122 21.4755 5.69736H23.5998V7.06358C23.5998 7.40658 23.8849 7.68461 24.2367 7.68461C24.5885 7.68461 24.8737 7.40658 24.8737 7.06358V1.91725C26.0822 2.36316 28.3556 3.73281 28.3556 7.72612C28.3556 8.06912 28.6408 8.34715 28.9926 8.34715C29.3444 8.34715 29.6295 8.06912 29.6295 7.72612C29.6295 7.46302 29.6198 7.18522 29.5974 6.89813C31.1339 7.62786 32.5123 8.6708 33.6207 9.95163C34.941 11.4774 35.854 13.3126 36.2609 15.2588C36.3866 15.8601 36.9282 16.2965 37.5487 16.2964L39.1838 16.2963C39.188 16.2963 39.2013 16.2963 39.2138 16.3084C39.2262 16.3205 39.2262 16.3333 39.2262 16.3377L39.2261 21.6369Z"/>
<path d="M33.6658 15.4583C33.2705 14.4242 32.224 13.7294 31.0621 13.7294C29.9001 13.7294 28.8538 14.4241 28.4583 15.4583C28.3354 15.7797 28.503 16.1373 28.8326 16.2571C29.1623 16.3771 29.5291 16.2136 29.6519 15.8922C29.8625 15.3415 30.4292 14.9714 31.062 14.9714C31.6948 14.9714 32.2616 15.3415 32.4722 15.8922C32.5677 16.1421 32.8107 16.2964 33.0691 16.2964C33.143 16.2964 33.2182 16.2838 33.2915 16.2571C33.6211 16.1373 33.7887 15.7796 33.6658 15.4583Z"/>
<path d="M17.4002 17.189V14.0154C18.6497 14.1634 19.5233 14.7279 19.5233 15.2406C19.5233 15.5836 19.8085 15.8616 20.1603 15.8616C20.5121 15.8616 20.7972 15.5836 20.7972 15.2406C20.7972 13.971 19.3492 12.9502 17.4002 12.7658V12.6944C17.4002 12.3514 17.115 12.0734 16.7632 12.0734C16.4114 12.0734 16.1263 12.3514 16.1263 12.6944V12.7658C14.1772 12.9502 12.7292 13.971 12.7292 15.2406C12.7292 17.054 14.5667 17.7085 16.1263 18.1361V21.3097C14.8767 21.1617 14.0032 20.5972 14.0032 20.0845C14.0032 19.7415 13.718 19.4635 13.3662 19.4635C13.0144 19.4635 12.7292 19.7415 12.7292 20.0845C12.7292 21.3541 14.1772 22.3749 16.1263 22.5593V22.6307C16.1263 22.9737 16.4114 23.2517 16.7632 23.2517C17.115 23.2517 17.4002 22.9737 17.4002 22.6307V22.5593C19.3492 22.3749 20.7972 21.3541 20.7972 20.0845C20.7972 18.271 18.9596 17.6166 17.4002 17.189ZM16.1263 16.8359C14.5575 16.3561 14.0032 15.92 14.0032 15.2406C14.0032 14.7279 14.8767 14.1634 16.1263 14.0154V16.8359ZM17.4002 21.3098V18.4893C18.9689 18.969 19.5233 19.4051 19.5233 20.0846C19.5233 20.5973 18.6496 21.1617 17.4002 21.3098Z"/>
</mask>
<path d="M20.8396 24.3282C20.4878 24.3282 20.2026 24.6063 20.2026 24.9493V26.2739C20.2026 26.6169 20.4878 26.8949 20.8396 26.8949C21.1914 26.8949 21.4765 26.6169 21.4765 26.2739V24.9493C21.4765 24.6063 21.1914 24.3282 20.8396 24.3282Z" fill="white"/>
<path d="M40.1144 15.4299C39.8658 15.1875 39.5354 15.0541 39.1838 15.0541C39.1838 15.0541 39.1837 15.0541 39.1838 15.0541L37.5484 15.0543C37.5277 15.0543 37.5135 15.0316 37.5091 15.0106C37.0597 12.8612 36.0518 10.8348 34.5943 9.15053C33.1855 7.52259 31.3813 6.24229 29.3693 5.43814C29.0448 4.10239 28.3595 2.72521 27.0082 1.68996C25.6999 0.687686 24.3823 0.494819 24.3269 0.487049C24.1444 0.461684 23.959 0.5147 23.8195 0.63269C23.6799 0.75068 23.5998 0.921762 23.5998 1.10183V4.45537H21.2883C20.717 2.54422 18.9055 1.14327 16.7634 1.14327C14.5758 1.14327 12.7319 2.60402 12.2027 4.57748C9.05336 4.99574 6.15586 6.48338 4.00586 8.79633C1.74508 11.2287 0.5 14.3774 0.5 17.6624C0.5 25.0359 4.42617 31.0355 5.62961 32.6985C6.00133 33.2123 6.61016 33.5191 7.2582 33.5191H9.96922C11.0697 33.5191 11.965 32.6462 11.965 31.5732V30.7136C12.651 30.8166 13.348 30.8694 14.0457 30.8694H20.2028V31.5732C20.2028 32.6462 21.0981 33.5191 22.1986 33.5191H25.1765C26.1113 33.5191 26.932 32.8722 27.1279 31.981L27.4548 30.4938C31.641 29.4998 35.0069 26.6364 36.6635 22.9205H39.1837C39.9095 22.9205 40.5 22.3448 40.5 21.6371V16.3377C40.5 15.9947 40.3631 15.6724 40.1144 15.4299ZM16.7633 2.3854C18.6598 2.3854 20.2027 3.8898 20.2027 5.73895C20.2027 6.21182 20.0989 6.67761 19.9033 7.10517H13.6232C13.4277 6.67746 13.3237 6.21182 13.3237 5.73895C13.3237 3.88972 14.8667 2.3854 16.7633 2.3854ZM39.2261 21.6369C39.2261 21.6598 39.2071 21.6784 39.1836 21.6784H37.1423C37.4893 20.6193 37.7028 19.5055 37.7639 18.357C37.7822 18.0145 37.5121 17.7224 37.1608 17.7046C36.8095 17.6873 36.5099 17.9501 36.4917 18.2927C36.2219 23.3651 32.6809 27.696 27.7548 29.1283L28.6448 25.0794C28.7185 24.744 28.4994 24.4139 28.1554 24.342C27.8116 24.27 27.4728 24.4838 27.3991 24.8192L25.8823 31.7206C25.8114 32.043 25.5145 32.277 25.1765 32.277H22.1984C21.8004 32.277 21.4766 31.9613 21.4766 31.5732V28.9235C21.4766 28.5805 21.1914 28.3024 20.8396 28.3024C20.4878 28.3024 20.2027 28.5805 20.2027 28.9235V29.6273H14.0455C13.3467 29.6273 12.6491 29.5687 11.9648 29.455V24.949C11.9648 24.606 11.6797 24.328 11.3279 24.328C10.9761 24.328 10.6909 24.606 10.6909 24.949V31.5732C10.6909 31.9613 10.3671 32.2771 9.96906 32.2771H7.2582C7.02008 32.2771 6.80586 32.1697 6.67055 31.9826C5.52187 30.3949 1.77391 24.6703 1.77391 17.6624C1.77391 14.6862 2.9018 11.8337 4.94977 9.63042C6.82398 7.61392 9.32469 6.29005 12.0519 5.85526C12.0629 6.28083 12.1345 6.70161 12.2629 7.10501H12.0074C11.6556 7.10501 11.3705 7.38304 11.3705 7.72604C11.3705 8.06904 11.6556 8.34707 12.0074 8.34707H21.5191C21.8709 8.34707 22.1561 8.06904 22.1561 7.72604C22.1561 7.38304 21.8709 7.10501 21.5191 7.10501H21.2636C21.4038 6.66482 21.4766 6.20405 21.4766 5.7388C21.4766 5.72486 21.4757 5.71122 21.4755 5.69736H23.5998V7.06358C23.5998 7.40658 23.8849 7.68461 24.2367 7.68461C24.5885 7.68461 24.8737 7.40658 24.8737 7.06358V1.91725C26.0822 2.36316 28.3556 3.73281 28.3556 7.72612C28.3556 8.06912 28.6408 8.34715 28.9926 8.34715C29.3444 8.34715 29.6295 8.06912 29.6295 7.72612C29.6295 7.46302 29.6198 7.18522 29.5974 6.89813C31.1339 7.62786 32.5123 8.6708 33.6207 9.95163C34.941 11.4774 35.854 13.3126 36.2609 15.2588C36.3866 15.8601 36.9282 16.2965 37.5487 16.2964L39.1838 16.2963C39.188 16.2963 39.2013 16.2963 39.2138 16.3084C39.2262 16.3205 39.2262 16.3333 39.2262 16.3377L39.2261 21.6369Z" fill="white"/>
<path d="M33.6658 15.4583C33.2705 14.4242 32.224 13.7294 31.0621 13.7294C29.9001 13.7294 28.8538 14.4241 28.4583 15.4583C28.3354 15.7797 28.503 16.1373 28.8326 16.2571C29.1623 16.3771 29.5291 16.2136 29.6519 15.8922C29.8625 15.3415 30.4292 14.9714 31.062 14.9714C31.6948 14.9714 32.2616 15.3415 32.4722 15.8922C32.5677 16.1421 32.8107 16.2964 33.0691 16.2964C33.143 16.2964 33.2182 16.2838 33.2915 16.2571C33.6211 16.1373 33.7887 15.7796 33.6658 15.4583Z" fill="white"/>
<path d="M17.4002 17.189V14.0154C18.6497 14.1634 19.5233 14.7279 19.5233 15.2406C19.5233 15.5836 19.8085 15.8616 20.1603 15.8616C20.5121 15.8616 20.7972 15.5836 20.7972 15.2406C20.7972 13.971 19.3492 12.9502 17.4002 12.7658V12.6944C17.4002 12.3514 17.115 12.0734 16.7632 12.0734C16.4114 12.0734 16.1263 12.3514 16.1263 12.6944V12.7658C14.1772 12.9502 12.7292 13.971 12.7292 15.2406C12.7292 17.054 14.5667 17.7085 16.1263 18.1361V21.3097C14.8767 21.1617 14.0032 20.5972 14.0032 20.0845C14.0032 19.7415 13.718 19.4635 13.3662 19.4635C13.0144 19.4635 12.7292 19.7415 12.7292 20.0845C12.7292 21.3541 14.1772 22.3749 16.1263 22.5593V22.6307C16.1263 22.9737 16.4114 23.2517 16.7632 23.2517C17.115 23.2517 17.4002 22.9737 17.4002 22.6307V22.5593C19.3492 22.3749 20.7972 21.3541 20.7972 20.0845C20.7972 18.271 18.9596 17.6166 17.4002 17.189ZM16.1263 16.8359C14.5575 16.3561 14.0032 15.92 14.0032 15.2406C14.0032 14.7279 14.8767 14.1634 16.1263 14.0154V16.8359ZM17.4002 21.3098V18.4893C18.9689 18.969 19.5233 19.4051 19.5233 20.0846C19.5233 20.5973 18.6496 21.1617 17.4002 21.3098Z" fill="white"/>
<path d="M40.1144 15.4299L40.0446 15.5015L40.0446 15.5015L40.1144 15.4299ZM37.5484 15.0543L37.5484 15.1543L37.5485 15.1543L37.5484 15.0543ZM37.5091 15.0106L37.607 14.9902L37.607 14.9901L37.5091 15.0106ZM34.5943 9.15053L34.6699 9.0851L34.6699 9.0851L34.5943 9.15053ZM29.3693 5.43814L29.2721 5.46175L29.2843 5.51186L29.3322 5.531L29.3693 5.43814ZM27.0082 1.68996L27.069 1.61057L27.069 1.61057L27.0082 1.68996ZM24.3269 0.487049L24.3408 0.388019L24.3406 0.388002L24.3269 0.487049ZM23.8195 0.63269L23.884 0.709049L23.884 0.709049L23.8195 0.63269ZM23.5998 4.45537V4.55537H23.6998V4.45537H23.5998ZM21.2883 4.45537L21.1925 4.48401L21.2138 4.55537H21.2883V4.45537ZM12.2027 4.57748L12.2159 4.67661L12.282 4.66782L12.2993 4.60338L12.2027 4.57748ZM4.00586 8.79633L3.93262 8.72825L3.93261 8.72825L4.00586 8.79633ZM5.62961 32.6985L5.71063 32.6399L5.71062 32.6399L5.62961 32.6985ZM11.965 30.7136L11.9798 30.6148L11.865 30.5975V30.7136H11.965ZM20.2028 30.8694H20.3028V30.7694H20.2028V30.8694ZM27.1279 31.981L27.0302 31.9595L27.0302 31.9595L27.1279 31.981ZM27.4548 30.4938L27.4317 30.3965L27.3706 30.411L27.3571 30.4723L27.4548 30.4938ZM36.6635 22.9205V22.8205H36.5986L36.5722 22.8798L36.6635 22.9205ZM19.9033 7.10517V7.20517H19.9675L19.9942 7.14677L19.9033 7.10517ZM13.6232 7.10517L13.5323 7.14675L13.559 7.20517H13.6232V7.10517ZM39.2261 21.6369L39.1261 21.6369V21.6369H39.2261ZM37.1423 21.6784L37.0473 21.6472L37.0044 21.7784H37.1423V21.6784ZM37.7639 18.357L37.664 18.3516L37.664 18.3517L37.7639 18.357ZM37.1608 17.7046L37.1658 17.6048L37.1657 17.6048L37.1608 17.7046ZM36.4917 18.2927L36.5916 18.298L36.5916 18.298L36.4917 18.2927ZM27.7548 29.1283L27.6572 29.1068L27.621 29.2713L27.7828 29.2243L27.7548 29.1283ZM28.6448 25.0794L28.5471 25.0579L28.5471 25.0579L28.6448 25.0794ZM28.1554 24.342L28.1349 24.4399L28.135 24.4399L28.1554 24.342ZM27.3991 24.8192L27.4968 24.8406L27.4968 24.8406L27.3991 24.8192ZM25.8823 31.7206L25.9799 31.7421L25.9799 31.7421L25.8823 31.7206ZM20.2027 29.6273V29.7273H20.3027V29.6273H20.2027ZM11.9648 29.455H11.8648V29.5397L11.9484 29.5536L11.9648 29.455ZM6.67055 31.9826L6.75159 31.924L6.75157 31.924L6.67055 31.9826ZM4.94977 9.63042L5.02301 9.6985L5.02301 9.6985L4.94977 9.63042ZM12.0519 5.85526L12.1518 5.85267L12.1489 5.73853L12.0361 5.75651L12.0519 5.85526ZM12.2629 7.10501V7.20501H12.3997L12.3582 7.07468L12.2629 7.10501ZM21.2636 7.10501L21.1683 7.07466L21.1268 7.20501H21.2636V7.10501ZM21.4755 5.69736V5.59736H21.3744L21.3756 5.69847L21.4755 5.69736ZM23.5998 5.69736H23.6998V5.59736H23.5998V5.69736ZM24.8737 1.91725L24.9083 1.82344L24.7737 1.77377V1.91725H24.8737ZM29.5974 6.89813L29.6403 6.8078L29.4843 6.73371L29.4977 6.90589L29.5974 6.89813ZM33.6207 9.95163L33.6963 9.8862L33.6963 9.8862L33.6207 9.95163ZM36.2609 15.2588L36.3588 15.2383L36.3588 15.2383L36.2609 15.2588ZM37.5487 16.2964L37.5487 16.1964L37.5487 16.1964L37.5487 16.2964ZM39.1838 16.2963L39.1838 16.1963L39.1837 16.1963L39.1838 16.2963ZM39.2138 16.3084L39.2836 16.2368L39.2836 16.2368L39.2138 16.3084ZM39.2262 16.3377L39.3262 16.3377V16.3377H39.2262ZM33.6658 15.4583L33.5724 15.494L33.5724 15.494L33.6658 15.4583ZM28.4583 15.4583L28.3649 15.4226L28.3649 15.4226L28.4583 15.4583ZM28.8326 16.2571L28.8668 16.1632L28.8667 16.1632L28.8326 16.2571ZM29.6519 15.8922L29.5585 15.8565L29.5585 15.8565L29.6519 15.8922ZM32.4722 15.8922L32.3788 15.9279L32.3788 15.9279L32.4722 15.8922ZM33.2915 16.2571L33.2573 16.1632L33.2573 16.1632L33.2915 16.2571ZM17.4002 17.189H17.3002V17.2653L17.3737 17.2854L17.4002 17.189ZM17.4002 14.0154L17.412 13.9161L17.3002 13.9028V14.0154H17.4002ZM17.4002 12.7658H17.3002V12.8568L17.3908 12.8653L17.4002 12.7658ZM16.1263 12.7658L16.1357 12.8653L16.2263 12.8568V12.7658H16.1263ZM16.1263 18.1361H16.2263V18.0598L16.1527 18.0397L16.1263 18.1361ZM16.1263 21.3097L16.1145 21.409L16.2263 21.4223V21.3097H16.1263ZM16.1263 22.5593H16.2263V22.4683L16.1357 22.4598L16.1263 22.5593ZM17.4002 22.5593L17.3908 22.4598L17.3002 22.4683V22.5593H17.4002ZM16.1263 16.8359L16.097 16.9315L16.2263 16.971V16.8359H16.1263ZM16.1263 14.0154H16.2263V13.9028L16.1145 13.9161L16.1263 14.0154ZM17.4002 21.3098H17.3002V21.4224L17.412 21.4091L17.4002 21.3098ZM17.4002 18.4893L17.4294 18.3937L17.3002 18.3542V18.4893H17.4002ZM20.8396 24.2282C20.435 24.2282 20.1026 24.5487 20.1026 24.9493H20.3026C20.3026 24.6639 20.5406 24.4282 20.8396 24.4282V24.2282ZM20.1026 24.9493V26.2739H20.3026V24.9493H20.1026ZM20.1026 26.2739C20.1026 26.6745 20.435 26.9949 20.8396 26.9949V26.7949C20.5406 26.7949 20.3026 26.5593 20.3026 26.2739H20.1026ZM20.8396 26.9949C21.2442 26.9949 21.5765 26.6745 21.5765 26.2739H21.3765C21.3765 26.5593 21.1386 26.7949 20.8396 26.7949V26.9949ZM21.5765 26.2739V24.9493H21.3765V26.2739H21.5765ZM21.5765 24.9493C21.5765 24.5487 21.2442 24.2282 20.8396 24.2282V24.4282C21.1386 24.4282 21.3765 24.6639 21.3765 24.9493H21.5765ZM40.1842 15.3583C39.9167 15.0975 39.5611 14.9541 39.1838 14.9541V15.1541C39.5097 15.1541 39.8149 15.2776 40.0446 15.5015L40.1842 15.3583ZM39.1838 14.9541C39.1838 14.9541 39.1837 14.9541 39.1837 14.9541C39.1837 14.9541 39.1837 14.9541 39.1837 14.9541C39.1837 14.9541 39.1837 14.9541 39.1837 14.9541C39.1837 14.9541 39.1837 14.9541 39.1837 14.9541C39.1837 14.9541 39.1837 14.9541 39.1837 14.9541C39.1837 14.9541 39.1837 14.9541 39.1837 14.9541C39.1837 14.9541 39.1837 14.9541 39.1837 14.9541C39.1837 14.9541 39.1837 14.9541 39.1837 14.9541C39.1837 14.9541 39.1837 14.9541 39.1837 14.9541C39.1837 14.9541 39.1837 14.9541 39.1837 14.9541C39.1837 14.9541 39.1837 14.9541 39.1837 14.9541C39.1837 14.9541 39.1837 14.9541 39.1837 14.9541C39.1837 14.9541 39.1837 14.9541 39.1837 14.9541C39.1837 14.9541 39.1837 14.9541 39.1837 14.9541C39.1837 14.9541 39.1837 14.9541 39.1837 14.9541C39.1837 14.9541 39.1837 14.9541 39.1837 14.9541C39.1837 14.9541 39.1837 14.9541 39.1837 14.9541C39.1837 14.9541 39.1837 14.9541 39.1837 14.9541C39.1837 14.9541 39.1837 14.9541 39.1837 14.9541C39.1837 14.9541 39.1837 14.9541 39.1837 14.9541C39.1837 14.9541 39.1837 14.9541 39.1837 14.9541C39.1837 14.9541 39.1837 14.9541 39.1837 14.9541C39.1837 14.9541 39.1837 14.9541 39.1837 14.9541C39.1837 14.9541 39.1837 14.9541 39.1837 14.9541C39.1837 14.9541 39.1837 14.9541 39.1837 14.9541C39.1837 14.9541 39.1837 14.9541 39.1837 14.9541C39.1837 14.9541 39.1837 14.9541 39.1837 14.9541C39.1837 14.9541 39.1837 14.9541 39.1837 14.9541C39.1837 14.9541 39.1837 14.9541 39.1837 14.9541C39.1837 14.9541 39.1837 14.9541 39.1837 14.9541C39.1837 14.9541 39.1837 14.9541 39.1837 14.9541C39.1837 14.9541 39.1837 14.9541 39.1837 14.9541C39.1837 14.9541 39.1837 14.9541 39.1837 14.9541C39.1837 14.9541 39.1837 14.9541 39.1837 14.9541C39.1837 14.9541 39.1837 14.9541 39.1837 14.9541C39.1837 14.9541 39.1837 14.9541 39.1837 14.9541C39.1837 14.9541 39.1837 14.9541 39.1837 14.9541C39.1837 14.9541 39.1837 14.9541 39.1837 14.9541C39.1837 14.9541 39.1837 14.9541 39.1837 14.9541C39.1837 14.9541 39.1837 14.9541 39.1837 14.9541C39.1837 14.9541 39.1837 14.9541 39.1837 14.9541C39.1837 14.9541 39.1837 14.9541 39.1837 14.9541C39.1837 14.9541 39.1837 14.9541 39.1837 14.9541C39.1837 14.9541 39.1837 14.9541 39.1837 14.9541C39.1837 14.9541 39.1837 14.9541 39.1837 14.9541C39.1837 14.9541 39.1837 14.9541 39.1837 14.9541C39.1837 14.9541 39.1837 14.9541 39.1837 14.9541C39.1837 14.9541 39.1837 14.9541 39.1837 14.9541C39.1837 14.9541 39.1837 14.9541 39.1837 14.9541C39.1837 14.9541 39.1837 14.9541 39.1837 14.9541C39.1837 14.9541 39.1837 14.9541 39.1837 14.9541C39.1837 14.9541 39.1837 14.9541 39.1837 14.9541C39.1837 14.9541 39.1837 14.9541 39.1837 14.9541C39.1837 14.9541 39.1837 14.9541 39.1837 14.9541C39.1837 14.9541 39.1837 14.9541 39.1837 14.9541C39.1837 14.9541 39.1837 14.9541 39.1837 14.9541C39.1837 14.9541 39.1837 14.9541 39.1837 14.9541C39.1837 14.9541 39.1837 14.9541 39.1837 14.9541C39.1837 14.9541 39.1837 14.9541 39.1837 14.9541C39.1837 14.9541 39.1837 14.9541 39.1837 14.9541C39.1837 14.9541 39.1837 14.9541 39.1837 14.9541C39.1837 14.9541 39.1837 14.9541 39.1837 14.9541C39.1837 14.9541 39.1837 14.9541 39.1837 14.9541C39.1837 14.9541 39.1837 14.9541 39.1837 14.9541C39.1837 14.9541 39.1837 14.9541 39.1837 14.9541C39.1837 14.9541 39.1837 14.9541 39.1837 14.9541C39.1837 14.9541 39.1837 14.9541 39.1837 14.9541C39.1837 14.9541 39.1837 14.9541 39.1837 14.9541C39.1837 14.9541 39.1837 14.9541 39.1837 14.9541C39.1837 14.9541 39.1837 14.9541 39.1837 14.9541C39.1837 14.9541 39.1837 14.9541 39.1837 14.9541C39.1837 14.9541 39.1837 14.9541 39.1837 14.9541C39.1837 14.9541 39.1837 14.9541 39.1837 14.9541C39.1837 14.9541 39.1837 14.9541 39.1837 14.9541C39.1837 14.9541 39.1837 14.9541 39.1837 14.9541C39.1837 14.9541 39.1837 14.9541 39.1837 14.9541C39.1837 14.9541 39.1837 14.9541 39.1837 14.9541C39.1837 14.9541 39.1837 14.9541 39.1837 14.9541C39.1837 14.9541 39.1837 14.9541 39.1837 14.9541C39.1837 14.9541 39.1837 14.9541 39.1837 14.9541C39.1837 14.9541 39.1837 14.9541 39.1837 14.9541C39.1837 14.9541 39.1837 14.9541 39.1837 14.9541C39.1837 14.9541 39.1837 14.9541 39.1837 14.9541C39.1837 14.9541 39.1837 14.9541 39.1837 14.9541C39.1837 14.9541 39.1837 14.9541 39.1837 14.9541C39.1837 14.9541 39.1837 14.9541 39.1837 14.9541C39.1837 14.9541 39.1837 14.9541 39.1837 14.9541C39.1837 14.9541 39.1837 14.9541 39.1837 14.9541C39.1837 14.9541 39.1837 14.9541 39.1837 14.9541C39.1837 14.9541 39.1837 14.9541 39.1837 14.9541C39.1837 14.9541 39.1837 14.9541 39.1837 14.9541C39.1837 14.9541 39.1837 14.9541 39.1837 14.9541C39.1837 14.9541 39.1837 14.9541 39.1837 14.9541C39.1837 14.9541 39.1837 14.9541 39.1837 14.9541C39.1837 14.9541 39.1837 14.9541 39.1837 14.9541C39.1837 14.9541 39.1837 14.9541 39.1837 14.9541C39.1837 14.9541 39.1837 14.9541 39.1837 14.9541C39.1837 14.9541 39.1837 14.9541 39.1837 14.9541C39.1837 14.9541 39.1837 14.9541 39.1837 14.9541C39.1837 14.9541 39.1837 14.9541 39.1837 14.9541C39.1837 14.9541 39.1837 14.9541 39.1837 14.9541C39.1837 14.9541 39.1837 14.9541 39.1837 14.9541C39.1837 14.9541 39.1837 14.9541 39.1837 14.9541C39.1837 14.9541 39.1837 14.9541 39.1837 14.9541C39.1837 14.9541 39.1837 14.9541 39.1837 14.9541C39.1837 14.9541 39.1837 14.9541 39.1837 14.9541C39.1837 15.0541 39.1837 15.1541 39.1837 15.1541C39.1837 15.1541 39.1837 15.1541 39.1837 15.1541C39.1837 15.1541 39.1837 15.1541 39.1837 15.1541C39.1837 15.1541 39.1837 15.1541 39.1837 15.1541C39.1837 15.1541 39.1837 15.1541 39.1837 15.1541C39.1837 15.1541 39.1837 15.1541 39.1837 15.1541C39.1837 15.1541 39.1837 15.1541 39.1837 15.1541C39.1837 15.1541 39.1837 15.1541 39.1837 15.1541C39.1837 15.1541 39.1837 15.1541 39.1837 15.1541C39.1837 15.1541 39.1837 15.1541 39.1837 15.1541C39.1837 15.1541 39.1837 15.1541 39.1837 15.1541C39.1837 15.1541 39.1837 15.1541 39.1837 15.1541C39.1837 15.1541 39.1837 15.1541 39.1837 15.1541C39.1837 15.1541 39.1837 15.1541 39.1837 15.1541C39.1837 15.1541 39.1837 15.1541 39.1837 15.1541C39.1837 15.1541 39.1837 15.1541 39.1837 15.1541C39.1837 15.1541 39.1837 15.1541 39.1837 15.1541C39.1837 15.1541 39.1837 15.1541 39.1837 15.1541C39.1837 15.1541 39.1837 15.1541 39.1837 15.1541C39.1837 15.1541 39.1837 15.1541 39.1837 15.1541C39.1837 15.1541 39.1837 15.1541 39.1837 15.1541C39.1837 15.1541 39.1837 15.1541 39.1837 15.1541C39.1837 15.1541 39.1837 15.1541 39.1837 15.1541C39.1837 15.1541 39.1837 15.1541 39.1837 15.1541C39.1837 15.1541 39.1837 15.1541 39.1837 15.1541C39.1837 15.1541 39.1837 15.1541 39.1837 15.1541C39.1837 15.1541 39.1837 15.1541 39.1837 15.1541C39.1837 15.1541 39.1837 15.1541 39.1837 15.1541C39.1837 15.1541 39.1837 15.1541 39.1837 15.1541C39.1837 15.1541 39.1837 15.1541 39.1837 15.1541C39.1837 15.1541 39.1837 15.1541 39.1837 15.1541C39.1837 15.1541 39.1837 15.1541 39.1837 15.1541C39.1837 15.1541 39.1837 15.1541 39.1837 15.1541C39.1837 15.1541 39.1837 15.1541 39.1837 15.1541C39.1837 15.1541 39.1837 15.1541 39.1837 15.1541C39.1837 15.1541 39.1837 15.1541 39.1837 15.1541C39.1837 15.1541 39.1837 15.1541 39.1837 15.1541C39.1837 15.1541 39.1837 15.1541 39.1837 15.1541C39.1837 15.1541 39.1837 15.1541 39.1837 15.1541C39.1837 15.1541 39.1837 15.1541 39.1837 15.1541C39.1837 15.1541 39.1837 15.1541 39.1837 15.1541C39.1837 15.1541 39.1837 15.1541 39.1837 15.1541C39.1837 15.1541 39.1837 15.1541 39.1837 15.1541C39.1837 15.1541 39.1837 15.1541 39.1837 15.1541C39.1837 15.1541 39.1837 15.1541 39.1837 15.1541C39.1837 15.1541 39.1837 15.1541 39.1837 15.1541C39.1837 15.1541 39.1837 15.1541 39.1837 15.1541C39.1837 15.1541 39.1837 15.1541 39.1837 15.1541C39.1837 15.1541 39.1837 15.1541 39.1837 15.1541C39.1837 15.1541 39.1837 15.1541 39.1837 15.1541C39.1837 15.1541 39.1837 15.1541 39.1837 15.1541C39.1837 15.1541 39.1837 15.1541 39.1837 15.1541C39.1837 15.1541 39.1837 15.1541 39.1837 15.1541C39.1837 15.1541 39.1837 15.1541 39.1837 15.1541C39.1837 15.1541 39.1837 15.1541 39.1837 15.1541C39.1837 15.1541 39.1837 15.1541 39.1837 15.1541C39.1837 15.1541 39.1837 15.1541 39.1837 15.1541C39.1837 15.1541 39.1837 15.1541 39.1837 15.1541C39.1837 15.1541 39.1837 15.1541 39.1837 15.1541C39.1837 15.1541 39.1837 15.1541 39.1837 15.1541C39.1837 15.1541 39.1837 15.1541 39.1837 15.1541C39.1837 15.1541 39.1837 15.1541 39.1837 15.1541C39.1837 15.1541 39.1837 15.1541 39.1837 15.1541C39.1837 15.1541 39.1837 15.1541 39.1837 15.1541C39.1837 15.1541 39.1837 15.1541 39.1837 15.1541C39.1837 15.1541 39.1837 15.1541 39.1837 15.1541C39.1837 15.1541 39.1837 15.1541 39.1837 15.1541C39.1837 15.1541 39.1837 15.1541 39.1837 15.1541C39.1837 15.1541 39.1837 15.1541 39.1837 15.1541C39.1837 15.1541 39.1837 15.1541 39.1837 15.1541C39.1837 15.1541 39.1837 15.1541 39.1837 15.1541C39.1837 15.1541 39.1837 15.1541 39.1837 15.1541C39.1837 15.1541 39.1837 15.1541 39.1837 15.1541C39.1837 15.1541 39.1837 15.1541 39.1837 15.1541C39.1837 15.1541 39.1837 15.1541 39.1837 15.1541C39.1837 15.1541 39.1837 15.1541 39.1837 15.1541C39.1837 15.1541 39.1837 15.1541 39.1837 15.1541C39.1837 15.1541 39.1837 15.1541 39.1837 15.1541C39.1837 15.1541 39.1837 15.1541 39.1837 15.1541C39.1837 15.1541 39.1837 15.1541 39.1837 15.1541C39.1837 15.1541 39.1837 15.1541 39.1837 15.1541C39.1837 15.1541 39.1837 15.1541 39.1837 15.1541C39.1837 15.1541 39.1837 15.1541 39.1837 15.1541C39.1837 15.1541 39.1837 15.1541 39.1837 15.1541C39.1837 15.1541 39.1837 15.1541 39.1837 15.1541C39.1837 15.1541 39.1837 15.1541 39.1837 15.1541C39.1837 15.1541 39.1837 15.1541 39.1837 15.1541C39.1837 15.1541 39.1837 15.1541 39.1837 15.1541C39.1837 15.1541 39.1837 15.1541 39.1837 15.1541C39.1837 15.1541 39.1837 15.1541 39.1837 15.1541C39.1837 15.1541 39.1837 15.1541 39.1837 15.1541C39.1837 15.1541 39.1837 15.1541 39.1837 15.1541C39.1837 15.1541 39.1837 15.1541 39.1837 15.1541C39.1837 15.1541 39.1837 15.1541 39.1837 15.1541C39.1837 15.1541 39.1837 15.1541 39.1837 15.1541C39.1837 15.1541 39.1837 15.1541 39.1837 15.1541C39.1837 15.1541 39.1837 15.1541 39.1837 15.1541C39.1837 15.1541 39.1837 15.1541 39.1837 15.1541C39.1837 15.1541 39.1837 15.1541 39.1837 15.1541C39.1837 15.1541 39.1837 15.1541 39.1837 15.1541C39.1837 15.1541 39.1837 15.1541 39.1837 15.1541C39.1837 15.1541 39.1837 15.1541 39.1837 15.1541C39.1837 15.1541 39.1837 15.1541 39.1837 15.1541C39.1837 15.1541 39.1837 15.1541 39.1837 15.1541C39.1837 15.1541 39.1837 15.1541 39.1837 15.1541C39.1837 15.1541 39.1837 15.1541 39.1837 15.1541C39.1837 15.1541 39.1837 15.1541 39.1837 15.1541C39.1837 15.1541 39.1837 15.1541 39.1837 15.1541C39.1837 15.1541 39.1837 15.1541 39.1837 15.1541C39.1837 15.1541 39.1837 15.1541 39.1837 15.1541C39.1837 15.1541 39.1837 15.1541 39.1837 15.1541C39.1837 15.1541 39.1837 15.1541 39.1837 15.1541C39.1837 15.1541 39.1837 15.1541 39.1837 15.1541C39.1837 15.1541 39.1837 15.1541 39.1837 15.1541C39.1837 15.1541 39.1837 15.1541 39.1837 15.1541C39.1837 15.1541 39.1837 15.1541 39.1837 15.1541C39.1837 15.1541 39.1837 15.1541 39.1837 15.1541C39.1837 15.1541 39.1837 15.1541 39.1837 15.1541C39.1837 15.1541 39.1837 15.1541 39.1837 15.1541C39.1837 15.1541 39.1837 15.1541 39.1837 15.1541C39.1837 15.1541 39.1837 15.1541 39.1837 15.1541C39.1837 15.1541 39.1837 15.1541 39.1837 15.1541C39.1837 15.1541 39.1837 15.1541 39.1837 15.1541C39.1837 15.1541 39.1837 15.1541 39.1837 15.1541C39.1837 15.1541 39.1837 15.1541 39.1837 15.1541C39.1837 15.1541 39.1837 15.1541 39.1837 15.1541C39.1837 15.1541 39.1837 15.1541 39.1837 15.1541C39.1837 15.1541 39.1837 15.1541 39.1837 15.1541C39.1837 15.1541 39.1837 15.1541 39.1837 15.1541C39.1837 15.1541 39.1837 15.1541 39.1837 15.1541C39.1837 15.1541 39.1837 15.1541 39.1837 15.1541C39.1837 15.1541 39.1837 15.1541 39.1837 15.1541C39.1837 15.1541 39.1837 15.1541 39.1837 15.1541C39.1837 15.1541 39.1837 15.1541 39.1837 15.1541C39.1837 15.1541 39.1837 15.1541 39.1837 15.1541C39.1837 15.1541 39.1837 15.1541 39.1837 15.1541C39.1837 15.1541 39.1837 15.1541 39.1837 15.1541C39.1837 15.1541 39.1837 15.1541 39.1837 15.1541C39.1837 15.1541 39.1837 15.1541 39.1837 15.1541C39.1837 15.1541 39.1837 15.1541 39.1837 15.1541C39.1837 15.1541 39.1837 15.1541 39.1837 15.1541C39.1837 15.1541 39.1837 15.1541 39.1837 15.1541C39.1837 15.1541 39.1837 15.1541 39.1837 15.1541C39.1838 15.1541 39.1838 15.1541 39.1838 15.1541C39.1838 15.1541 39.1838 15.1541 39.1838 15.1541C39.1838 15.1541 39.1838 15.1541 39.1838 15.1541C39.1838 15.1541 39.1838 15.1541 39.1838 15.1541C39.1838 15.1541 39.1838 15.1541 39.1838 15.1541C39.1838 15.1541 39.1838 15.1541 39.1838 15.1541C39.1838 15.1541 39.1838 15.1541 39.1838 15.1541C39.1838 15.1541 39.1838 15.1541 39.1838 15.1541C39.1838 15.1541 39.1838 15.1541 39.1838 15.1541C39.1838 15.1541 39.1838 15.1541 39.1838 15.1541C39.1838 15.1541 39.1838 15.1541 39.1838 15.1541C39.1838 15.1541 39.1838 15.1541 39.1838 15.1541C39.1838 15.1541 39.1838 15.1541 39.1838 15.1541C39.1838 15.1541 39.1838 15.1541 39.1838 15.1541C39.1838 15.1541 39.1838 15.1541 39.1838 15.1541C39.1838 15.1541 39.1838 15.1541 39.1838 15.1541C39.1838 15.1541 39.1838 15.1541 39.1838 15.1541C39.1838 15.1541 39.1838 15.1541 39.1838 15.1541C39.1838 15.1541 39.1838 15.1541 39.1838 15.1541C39.1838 15.1541 39.1838 15.1541 39.1838 15.1541C39.1838 15.1541 39.1838 15.1541 39.1838 15.1541C39.1838 15.1541 39.1838 15.1541 39.1838 15.1541C39.1838 15.1541 39.1838 15.1541 39.1838 15.1541C39.1838 15.1541 39.1838 15.1541 39.1838 15.1541C39.1838 15.1541 39.1838 15.1541 39.1838 15.1541C39.1838 15.1541 39.1838 15.1541 39.1838 15.1541C39.1838 15.1541 39.1838 15.1541 39.1838 15.1541C39.1838 15.1541 39.1838 15.1541 39.1838 15.1541C39.1838 15.1541 39.1838 15.1541 39.1838 15.1541C39.1838 15.1541 39.1838 15.1541 39.1838 15.1541C39.1838 15.1541 39.1838 15.1541 39.1838 15.1541C39.1838 15.1541 39.1838 15.1541 39.1838 15.1541C39.1838 15.1541 39.1838 15.1541 39.1838 15.1541C39.1838 15.1541 39.1838 15.1541 39.1838 15.1541C39.1838 15.1541 39.1838 15.1541 39.1838 15.1541C39.1838 15.1541 39.1838 15.1541 39.1838 15.1541C39.1838 15.1541 39.1838 15.1541 39.1838 15.1541C39.1838 15.1541 39.1838 15.1541 39.1838 15.1541C39.1838 15.1541 39.1838 15.1541 39.1838 15.1541C39.1838 15.1541 39.1838 15.1541 39.1838 15.1541C39.1838 15.1541 39.1838 15.1541 39.1838 15.1541C39.1838 15.1541 39.1838 15.1541 39.1838 15.1541C39.1838 15.1541 39.1838 15.1541 39.1838 15.1541C39.1838 15.1541 39.1838 15.1541 39.1838 15.1541C39.1838 15.1541 39.1838 15.1541 39.1838 15.1541C39.1838 15.1541 39.1838 15.1541 39.1838 15.1541C39.1838 15.1541 39.1838 15.1541 39.1838 15.1541C39.1838 15.1541 39.1838 15.1541 39.1838 15.1541C39.1838 15.1541 39.1838 15.1541 39.1838 15.1541C39.1838 15.1541 39.1838 15.1541 39.1838 15.1541C39.1838 15.1541 39.1838 15.1541 39.1838 15.1541C39.1838 15.1541 39.1838 15.1541 39.1838 15.1541C39.1838 15.1541 39.1838 15.1541 39.1838 15.1541C39.1838 15.1541 39.1838 15.1541 39.1838 15.1541C39.1838 15.1541 39.1838 15.1541 39.1838 15.1541C39.1838 15.1541 39.1838 15.1541 39.1838 15.1541C39.1838 15.1541 39.1838 15.1541 39.1838 15.1541C39.1838 15.1541 39.1838 15.1541 39.1838 15.1541C39.1838 15.1541 39.1838 15.1541 39.1838 15.1541C39.1838 15.1541 39.1838 15.1541 39.1838 15.1541C39.1838 15.1541 39.1838 15.1541 39.1838 15.1541C39.1838 15.1541 39.1838 15.1541 39.1838 15.1541C39.1838 15.1541 39.1838 15.1541 39.1838 15.1541C39.1838 15.1541 39.1838 15.1541 39.1838 15.1541C39.1838 15.1541 39.1838 15.1541 39.1838 15.1541C39.1838 15.1541 39.1838 15.1541 39.1838 15.1541C39.1838 15.1541 39.1838 15.1541 39.1838 15.1541C39.1838 15.1541 39.1838 15.1541 39.1838 15.1541C39.1838 15.1541 39.1838 15.1541 39.1838 15.1541C39.1838 15.1541 39.1838 15.1541 39.1838 15.1541C39.1838 15.1541 39.1838 15.1541 39.1838 15.1541C39.1838 15.1541 39.1838 15.1541 39.1838 15.1541C39.1838 15.1541 39.1838 15.1541 39.1838 15.1541C39.1838 15.1541 39.1838 15.1541 39.1838 15.1541C39.1838 15.1541 39.1838 15.1541 39.1838 15.1541C39.1838 15.1541 39.1838 15.1541 39.1838 15.1541C39.1838 15.1541 39.1838 15.1541 39.1838 15.1541C39.1838 15.1541 39.1838 15.1541 39.1838 15.1541C39.1838 15.1541 39.1838 15.1541 39.1838 15.1541C39.1838 15.1541 39.1838 15.1541 39.1838 15.1541C39.1838 15.1541 39.1838 15.1541 39.1838 15.1541C39.1838 15.1541 39.1838 15.1541 39.1838 15.1541C39.1838 15.1541 39.1838 15.1541 39.1838 15.1541C39.1838 15.1541 39.1838 15.1541 39.1838 15.1541C39.1838 15.1541 39.1838 15.1541 39.1838 15.1541C39.1838 15.1541 39.1838 15.1541 39.1838 15.1541C39.1838 15.1541 39.1838 15.1541 39.1838 15.1541C39.1838 15.1541 39.1838 15.1541 39.1838 15.1541C39.1838 15.1541 39.1838 15.1541 39.1838 15.1541C39.1838 15.1541 39.1838 15.1541 39.1838 15.1541C39.1838 15.1541 39.1838 15.1541 39.1838 15.1541C39.1838 15.1541 39.1838 15.1541 39.1838 15.1541C39.1838 15.1541 39.1838 15.1541 39.1838 15.1541C39.1838 15.1541 39.1838 15.1541 39.1838 15.1541C39.1838 15.1541 39.1838 15.1541 39.1838 15.1541C39.1838 15.1541 39.1838 15.1541 39.1838 15.1541C39.1838 15.1541 39.1838 15.1541 39.1838 15.1541C39.1838 15.1541 39.1838 15.1541 39.1838 15.1541C39.1838 15.1541 39.1838 15.1541 39.1838 15.1541C39.1838 15.1541 39.1838 15.1541 39.1838 15.1541C39.1838 15.1541 39.1838 15.1541 39.1838 15.1541C39.1838 15.1541 39.1838 15.1541 39.1838 15.1541C39.1838 15.1541 39.1838 15.1541 39.1838 15.1541C39.1838 15.1541 39.1838 15.1541 39.1838 15.1541C39.1838 15.1541 39.1838 15.1541 39.1838 15.1541C39.1838 15.1541 39.1838 15.1541 39.1838 15.1541C39.1838 15.1541 39.1838 15.1541 39.1838 15.1541C39.1838 15.1541 39.1838 15.1541 39.1838 15.1541C39.1838 15.1541 39.1838 15.1541 39.1838 15.1541C39.1838 15.1541 39.1838 15.1541 39.1838 15.1541C39.1838 15.1541 39.1838 15.1541 39.1838 15.1541C39.1838 15.1541 39.1838 15.1541 39.1838 15.1541C39.1838 15.1541 39.1838 15.1541 39.1838 15.1541C39.1838 15.1541 39.1838 15.1541 39.1838 15.1541C39.1838 15.1541 39.1838 15.1541 39.1838 15.1541C39.1838 15.1541 39.1838 15.1541 39.1838 15.1541C39.1838 15.1541 39.1838 15.1541 39.1838 15.1541C39.1838 15.1541 39.1838 15.1541 39.1838 15.1541C39.1838 15.1541 39.1838 15.1541 39.1838 15.1541C39.1838 15.1541 39.1838 15.1541 39.1838 15.1541C39.1838 15.1541 39.1838 15.1541 39.1838 15.1541C39.1838 15.1541 39.1838 15.1541 39.1838 15.1541C39.1838 15.1541 39.1838 15.1541 39.1838 15.1541C39.1838 15.1541 39.1838 15.1541 39.1838 15.1541C39.1838 15.1541 39.1838 15.1541 39.1838 15.1541C39.1838 15.1541 39.1838 15.1541 39.1838 15.1541C39.1838 15.1541 39.1838 15.1541 39.1838 15.1541C39.1838 15.1541 39.1838 15.1541 39.1838 15.1541C39.1838 15.1541 39.1838 15.1541 39.1838 15.1541C39.1838 15.1541 39.1838 15.1541 39.1838 15.1541C39.1838 15.1541 39.1838 15.1541 39.1838 15.1541C39.1838 15.1541 39.1838 15.1541 39.1838 15.1541C39.1838 15.1541 39.1838 15.1541 39.1838 15.1541C39.1838 15.1541 39.1838 15.1541 39.1838 15.1541C39.1838 15.1541 39.1838 15.1541 39.1838 15.1541C39.1838 15.1541 39.1838 15.1541 39.1838 15.1541C39.1838 15.1541 39.1838 15.1541 39.1838 15.1541C39.1838 15.1541 39.1838 15.1541 39.1838 15.1541C39.1838 15.1541 39.1838 15.1541 39.1838 15.1541C39.1838 15.1541 39.1838 15.1541 39.1838 15.1541C39.1838 15.1541 39.1838 15.1541 39.1838 15.1541C39.1838 15.1541 39.1838 15.1541 39.1838 15.1541C39.1838 15.1541 39.1838 15.1541 39.1838 15.1541C39.1838 15.1541 39.1838 15.1541 39.1838 15.1541C39.1838 15.1541 39.1838 15.1541 39.1838 15.1541C39.1838 15.1541 39.1838 15.1541 39.1838 15.1541C39.1838 15.1541 39.1838 15.1541 39.1838 15.1541C39.1838 15.1541 39.1838 15.1541 39.1838 15.1541C39.1838 15.1541 39.1838 15.1541 39.1838 15.1541C39.1838 15.1541 39.1838 15.1541 39.1838 15.1541C39.1838 15.1541 39.1838 15.1541 39.1838 15.1541C39.1838 15.1541 39.1838 15.1541 39.1838 15.1541C39.1838 15.1541 39.1838 15.0541 39.1838 14.9541C39.1838 14.9541 39.1838 14.9541 39.1838 14.9541C39.1838 14.9541 39.1838 14.9541 39.1838 14.9541C39.1838 14.9541 39.1838 14.9541 39.1838 14.9541C39.1838 14.9541 39.1838 14.9541 39.1838 14.9541C39.1838 14.9541 39.1838 14.9541 39.1838 14.9541C39.1838 14.9541 39.1838 14.9541 39.1838 14.9541C39.1838 14.9541 39.1838 14.9541 39.1838 14.9541C39.1838 14.9541 39.1838 14.9541 39.1838 14.9541C39.1838 14.9541 39.1838 14.9541 39.1838 14.9541C39.1838 14.9541 39.1838 14.9541 39.1838 14.9541C39.1838 14.9541 39.1838 14.9541 39.1838 14.9541C39.1838 14.9541 39.1838 14.9541 39.1838 14.9541C39.1838 14.9541 39.1838 14.9541 39.1838 14.9541C39.1838 14.9541 39.1838 14.9541 39.1838 14.9541C39.1838 14.9541 39.1838 14.9541 39.1838 14.9541C39.1838 14.9541 39.1838 14.9541 39.1838 14.9541C39.1838 14.9541 39.1838 14.9541 39.1838 14.9541C39.1838 14.9541 39.1838 14.9541 39.1838 14.9541C39.1838 14.9541 39.1838 14.9541 39.1838 14.9541C39.1838 14.9541 39.1838 14.9541 39.1838 14.9541C39.1838 14.9541 39.1838 14.9541 39.1838 14.9541C39.1838 14.9541 39.1838 14.9541 39.1838 14.9541C39.1838 14.9541 39.1838 14.9541 39.1838 14.9541C39.1838 14.9541 39.1838 14.9541 39.1838 14.9541C39.1838 14.9541 39.1838 14.9541 39.1838 14.9541C39.1838 14.9541 39.1838 14.9541 39.1838 14.9541C39.1838 14.9541 39.1838 14.9541 39.1838 14.9541C39.1838 14.9541 39.1838 14.9541 39.1838 14.9541C39.1838 14.9541 39.1838 14.9541 39.1838 14.9541C39.1838 14.9541 39.1838 14.9541 39.1838 14.9541C39.1838 14.9541 39.1838 14.9541 39.1838 14.9541C39.1838 14.9541 39.1838 14.9541 39.1838 14.9541C39.1838 14.9541 39.1838 14.9541 39.1838 14.9541C39.1838 14.9541 39.1838 14.9541 39.1838 14.9541C39.1838 14.9541 39.1838 14.9541 39.1838 14.9541C39.1838 14.9541 39.1838 14.9541 39.1838 14.9541C39.1838 14.9541 39.1838 14.9541 39.1838 14.9541C39.1838 14.9541 39.1838 14.9541 39.1838 14.9541C39.1838 14.9541 39.1838 14.9541 39.1838 14.9541C39.1838 14.9541 39.1838 14.9541 39.1838 14.9541C39.1838 14.9541 39.1838 14.9541 39.1838 14.9541C39.1838 14.9541 39.1838 14.9541 39.1838 14.9541C39.1838 14.9541 39.1838 14.9541 39.1838 14.9541C39.1838 14.9541 39.1838 14.9541 39.1838 14.9541C39.1838 14.9541 39.1838 14.9541 39.1838 14.9541C39.1838 14.9541 39.1838 14.9541 39.1838 14.9541C39.1838 14.9541 39.1838 14.9541 39.1838 14.9541C39.1838 14.9541 39.1838 14.9541 39.1838 14.9541C39.1838 14.9541 39.1838 14.9541 39.1838 14.9541C39.1838 14.9541 39.1838 14.9541 39.1838 14.9541C39.1838 14.9541 39.1838 14.9541 39.1838 14.9541C39.1838 14.9541 39.1838 14.9541 39.1838 14.9541C39.1838 14.9541 39.1838 14.9541 39.1838 14.9541C39.1838 14.9541 39.1838 14.9541 39.1838 14.9541C39.1838 14.9541 39.1838 14.9541 39.1838 14.9541C39.1838 14.9541 39.1838 14.9541 39.1838 14.9541C39.1838 14.9541 39.1838 14.9541 39.1838 14.9541C39.1838 14.9541 39.1838 14.9541 39.1838 14.9541C39.1838 14.9541 39.1838 14.9541 39.1838 14.9541C39.1838 14.9541 39.1838 14.9541 39.1838 14.9541C39.1838 14.9541 39.1838 14.9541 39.1838 14.9541C39.1838 14.9541 39.1838 14.9541 39.1838 14.9541C39.1838 14.9541 39.1838 14.9541 39.1838 14.9541C39.1838 14.9541 39.1838 14.9541 39.1838 14.9541C39.1838 14.9541 39.1838 14.9541 39.1838 14.9541C39.1838 14.9541 39.1838 14.9541 39.1838 14.9541C39.1838 14.9541 39.1838 14.9541 39.1838 14.9541C39.1838 14.9541 39.1838 14.9541 39.1838 14.9541C39.1838 14.9541 39.1838 14.9541 39.1838 14.9541C39.1838 14.9541 39.1838 14.9541 39.1838 14.9541C39.1838 14.9541 39.1838 14.9541 39.1838 14.9541C39.1838 14.9541 39.1838 14.9541 39.1838 14.9541C39.1838 14.9541 39.1838 14.9541 39.1838 14.9541C39.1838 14.9541 39.1838 14.9541 39.1838 14.9541C39.1838 14.9541 39.1838 14.9541 39.1838 14.9541C39.1838 14.9541 39.1838 14.9541 39.1838 14.9541C39.1838 14.9541 39.1838 14.9541 39.1838 14.9541C39.1838 14.9541 39.1838 14.9541 39.1838 14.9541C39.1838 14.9541 39.1838 14.9541 39.1838 14.9541C39.1838 14.9541 39.1838 14.9541 39.1838 14.9541C39.1838 14.9541 39.1838 14.9541 39.1838 14.9541C39.1838 14.9541 39.1838 14.9541 39.1838 14.9541C39.1838 14.9541 39.1838 14.9541 39.1838 14.9541C39.1838 14.9541 39.1838 14.9541 39.1838 14.9541C39.1838 14.9541 39.1838 14.9541 39.1838 14.9541C39.1838 14.9541 39.1838 14.9541 39.1838 14.9541C39.1838 14.9541 39.1838 14.9541 39.1838 14.9541C39.1838 14.9541 39.1838 14.9541 39.1838 14.9541C39.1838 14.9541 39.1838 14.9541 39.1838 14.9541C39.1838 14.9541 39.1838 14.9541 39.1838 14.9541C39.1838 14.9541 39.1838 14.9541 39.1838 14.9541C39.1838 14.9541 39.1838 14.9541 39.1838 14.9541C39.1838 14.9541 39.1838 14.9541 39.1838 14.9541C39.1838 14.9541 39.1838 14.9541 39.1838 14.9541C39.1838 14.9541 39.1838 14.9541 39.1838 14.9541C39.1838 14.9541 39.1838 14.9541 39.1838 14.9541C39.1838 14.9541 39.1838 14.9541 39.1838 14.9541C39.1838 14.9541 39.1838 14.9541 39.1838 14.9541C39.1838 14.9541 39.1838 14.9541 39.1838 14.9541C39.1838 14.9541 39.1838 14.9541 39.1838 14.9541C39.1838 14.9541 39.1838 14.9541 39.1838 14.9541C39.1838 14.9541 39.1838 14.9541 39.1838 14.9541C39.1838 14.9541 39.1838 14.9541 39.1838 14.9541C39.1838 14.9541 39.1838 14.9541 39.1838 14.9541C39.1838 14.9541 39.1838 14.9541 39.1838 14.9541C39.1838 14.9541 39.1838 14.9541 39.1838 14.9541C39.1838 14.9541 39.1838 14.9541 39.1838 14.9541C39.1838 14.9541 39.1838 14.9541 39.1838 14.9541C39.1838 14.9541 39.1838 14.9541 39.1838 14.9541C39.1838 14.9541 39.1838 14.9541 39.1838 14.9541V15.1541C39.1838 15.1541 39.1838 15.1541 39.1838 15.1541C39.1838 15.1541 39.1838 15.1541 39.1838 15.1541C39.1838 15.1541 39.1838 15.1541 39.1838 15.1541C39.1838 15.1541 39.1838 15.1541 39.1838 15.1541C39.1838 15.1541 39.1838 15.1541 39.1838 15.1541C39.1838 15.1541 39.1838 15.1541 39.1838 15.1541C39.1838 15.1541 39.1838 15.1541 39.1838 15.1541C39.1838 15.1541 39.1838 15.1541 39.1838 15.1541C39.1838 15.1541 39.1838 15.1541 39.1838 15.1541C39.1838 15.1541 39.1838 15.1541 39.1838 15.1541C39.1838 15.1541 39.1838 15.1541 39.1838 15.1541C39.1838 15.1541 39.1838 15.1541 39.1838 15.1541C39.1838 15.1541 39.1838 15.1541 39.1838 15.1541C39.1838 15.1541 39.1838 15.1541 39.1838 15.1541C39.1838 15.1541 39.1838 15.1541 39.1838 15.1541C39.1838 15.1541 39.1838 15.1541 39.1838 15.1541C39.1838 15.1541 39.1838 15.1541 39.1838 15.1541C39.1838 15.1541 39.1838 15.1541 39.1838 15.1541C39.1838 15.1541 39.1838 15.1541 39.1838 15.1541C39.1838 15.1541 39.1838 15.1541 39.1838 15.1541C39.1838 15.1541 39.1838 15.1541 39.1838 15.1541C39.1838 15.1541 39.1838 15.1541 39.1838 15.1541C39.1838 15.1541 39.1838 15.1541 39.1838 15.1541C39.1838 15.1541 39.1838 15.1541 39.1838 15.1541C39.1838 15.1541 39.1838 15.1541 39.1838 15.1541C39.1838 15.1541 39.1838 15.1541 39.1838 15.1541C39.1838 15.1541 39.1838 15.1541 39.1838 15.1541C39.1838 15.1541 39.1838 15.1541 39.1838 15.1541C39.1838 15.1541 39.1838 15.1541 39.1838 15.1541C39.1838 15.1541 39.1838 15.1541 39.1838 15.1541C39.1838 15.1541 39.1838 15.1541 39.1838 15.1541C39.1838 15.1541 39.1838 15.1541 39.1838 15.1541C39.1838 15.1541 39.1838 15.1541 39.1838 15.1541C39.1838 15.1541 39.1838 15.1541 39.1838 15.1541C39.1838 15.1541 39.1838 15.1541 39.1838 15.1541C39.1838 15.1541 39.1838 15.1541 39.1838 15.1541C39.1838 15.1541 39.1838 15.1541 39.1838 15.1541C39.1838 15.1541 39.1838 15.1541 39.1838 15.1541C39.1838 15.1541 39.1838 15.1541 39.1838 15.1541C39.1838 15.1541 39.1838 15.1541 39.1838 15.1541C39.1838 15.1541 39.1838 15.1541 39.1838 15.1541C39.1838 15.1541 39.1838 15.1541 39.1838 15.1541C39.1838 15.1541 39.1838 15.1541 39.1838 15.1541C39.1838 15.1541 39.1838 15.1541 39.1838 15.1541C39.1838 15.1541 39.1838 15.1541 39.1838 15.1541C39.1838 15.1541 39.1838 15.1541 39.1838 15.1541C39.1838 15.1541 39.1838 15.1541 39.1838 15.1541C39.1838 15.1541 39.1838 15.1541 39.1838 15.1541C39.1838 15.1541 39.1838 15.1541 39.1838 15.1541C39.1838 15.1541 39.1838 15.1541 39.1838 15.1541C39.1838 15.1541 39.1838 15.1541 39.1838 15.1541C39.1838 15.1541 39.1838 15.1541 39.1838 15.1541C39.1838 15.1541 39.1838 15.1541 39.1838 15.1541C39.1838 15.1541 39.1838 15.1541 39.1838 15.1541C39.1838 15.1541 39.1838 15.1541 39.1838 15.1541C39.1838 15.1541 39.1838 15.1541 39.1838 15.1541C39.1838 15.1541 39.1838 15.1541 39.1838 15.1541C39.1838 15.1541 39.1838 15.1541 39.1838 15.1541C39.1838 15.1541 39.1838 15.1541 39.1838 15.1541C39.1838 15.1541 39.1838 15.1541 39.1838 15.1541C39.1838 15.1541 39.1838 15.1541 39.1838 15.1541C39.1838 15.1541 39.1838 15.1541 39.1838 15.1541C39.1838 15.1541 39.1838 15.1541 39.1838 15.1541C39.1838 15.1541 39.1838 15.1541 39.1838 15.1541C39.1838 15.1541 39.1838 15.1541 39.1838 15.1541C39.1838 15.1541 39.1838 15.1541 39.1838 15.1541C39.1838 15.1541 39.1838 15.1541 39.1838 15.1541C39.1838 15.1541 39.1838 15.1541 39.1838 15.1541C39.1838 15.1541 39.1838 15.1541 39.1838 15.1541C39.1838 15.1541 39.1838 15.1541 39.1838 15.1541C39.1838 15.1541 39.1838 15.1541 39.1838 15.1541C39.1838 15.1541 39.1838 15.1541 39.1838 15.1541C39.1838 15.1541 39.1838 15.1541 39.1838 15.1541C39.1838 15.1541 39.1838 15.1541 39.1838 15.1541C39.1838 15.1541 39.1838 15.1541 39.1838 15.1541C39.1838 15.1541 39.1838 15.1541 39.1838 15.1541C39.1838 15.1541 39.1838 15.1541 39.1838 15.1541C39.1838 15.1541 39.1838 15.1541 39.1838 15.1541C39.1838 15.1541 39.1838 15.1541 39.1838 15.1541C39.1838 15.1541 39.1838 15.1541 39.1838 15.1541C39.1838 15.1541 39.1838 15.1541 39.1838 15.1541C39.1838 15.1541 39.1838 15.1541 39.1838 15.1541C39.1838 15.1541 39.1838 15.1541 39.1838 15.1541C39.1838 15.1541 39.1838 15.1541 39.1838 15.1541C39.1838 15.1541 39.1838 15.1541 39.1838 15.1541C39.1838 15.1541 39.1838 15.1541 39.1838 15.1541C39.1838 15.1541 39.1838 15.1541 39.1838 15.1541C39.1838 15.1541 39.1838 15.1541 39.1838 15.1541C39.1838 15.1541 39.1838 15.1541 39.1838 15.1541C39.1838 15.1541 39.1838 15.1541 39.1838 15.1541C39.1838 15.1541 39.1838 15.1541 39.1838 15.1541C39.1838 15.1541 39.1838 15.1541 39.1838 15.1541C39.1838 15.1541 39.1838 15.1541 39.1838 15.1541C39.1838 15.1541 39.1838 15.1541 39.1838 15.1541C39.1838 15.1541 39.1838 15.1541 39.1838 15.1541C39.1838 15.1541 39.1838 15.1541 39.1838 15.1541C39.1838 15.1541 39.1838 15.1541 39.1838 15.1541C39.1838 15.1541 39.1838 15.1541 39.1838 15.1541C39.1838 15.1541 39.1838 15.1541 39.1838 15.1541C39.1838 15.1541 39.1838 15.1541 39.1838 15.1541C39.1838 15.1541 39.1838 15.1541 39.1838 15.1541C39.1838 15.1541 39.1838 15.1541 39.1838 15.1541C39.1838 15.1541 39.1838 15.1541 39.1838 15.1541C39.1838 15.1541 39.1838 15.1541 39.1838 15.1541C39.1838 15.1541 39.1838 15.1541 39.1838 15.1541C39.1838 15.1541 39.1838 15.1541 39.1838 15.1541C39.1838 15.1541 39.1838 15.1541 39.1838 15.1541C39.1838 15.1541 39.1838 15.1541 39.1838 15.1541C39.1838 15.1541 39.1838 15.1541 39.1838 15.1541C39.1838 15.1541 39.1838 15.1541 39.1838 15.1541C39.1838 15.0541 39.1838 14.9541 39.1838 14.9541C39.1838 14.9541 39.1838 14.9541 39.1838 14.9541C39.1838 14.9541 39.1838 14.9541 39.1838 14.9541C39.1838 14.9541 39.1838 14.9541 39.1838 14.9541C39.1838 14.9541 39.1838 14.9541 39.1838 14.9541C39.1838 14.9541 39.1838 14.9541 39.1838 14.9541C39.1838 14.9541 39.1838 14.9541 39.1838 14.9541C39.1838 14.9541 39.1838 14.9541 39.1838 14.9541C39.1838 14.9541 39.1838 14.9541 39.1838 14.9541C39.1838 14.9541 39.1838 14.9541 39.1838 14.9541C39.1838 14.9541 39.1838 14.9541 39.1838 14.9541C39.1838 14.9541 39.1838 14.9541 39.1838 14.9541C39.1838 14.9541 39.1838 14.9541 39.1838 14.9541C39.1838 14.9541 39.1838 14.9541 39.1838 14.9541C39.1838 14.9541 39.1838 14.9541 39.1838 14.9541C39.1838 14.9541 39.1838 14.9541 39.1838 14.9541C39.1838 14.9541 39.1838 14.9541 39.1838 14.9541C39.1838 14.9541 39.1838 14.9541 39.1838 14.9541C39.1838 14.9541 39.1838 14.9541 39.1838 14.9541C39.1838 14.9541 39.1838 14.9541 39.1838 14.9541C39.1838 14.9541 39.1838 14.9541 39.1838 14.9541C39.1838 14.9541 39.1838 14.9541 39.1838 14.9541C39.1838 14.9541 39.1838 14.9541 39.1838 14.9541C39.1838 14.9541 39.1838 14.9541 39.1838 14.9541C39.1838 14.9541 39.1838 14.9541 39.1838 14.9541C39.1838 14.9541 39.1838 14.9541 39.1838 14.9541C39.1838 14.9541 39.1838 14.9541 39.1838 14.9541C39.1838 14.9541 39.1838 14.9541 39.1838 14.9541C39.1838 14.9541 39.1838 14.9541 39.1838 14.9541C39.1838 14.9541 39.1838 14.9541 39.1838 14.9541C39.1838 14.9541 39.1838 14.9541 39.1838 14.9541C39.1838 14.9541 39.1838 14.9541 39.1838 14.9541C39.1838 14.9541 39.1838 14.9541 39.1838 14.9541C39.1838 14.9541 39.1838 14.9541 39.1838 14.9541C39.1838 14.9541 39.1838 14.9541 39.1838 14.9541C39.1838 14.9541 39.1838 14.9541 39.1838 14.9541C39.1838 14.9541 39.1838 14.9541 39.1838 14.9541C39.1838 14.9541 39.1838 14.9541 39.1838 14.9541C39.1838 14.9541 39.1838 14.9541 39.1838 14.9541C39.1838 14.9541 39.1838 14.9541 39.1838 14.9541C39.1838 14.9541 39.1838 14.9541 39.1838 14.9541C39.1838 14.9541 39.1838 14.9541 39.1838 14.9541C39.1838 14.9541 39.1838 14.9541 39.1838 14.9541C39.1838 14.9541 39.1838 14.9541 39.1838 14.9541C39.1838 14.9541 39.1838 14.9541 39.1838 14.9541C39.1838 14.9541 39.1838 14.9541 39.1838 14.9541C39.1838 14.9541 39.1838 14.9541 39.1838 14.9541C39.1838 14.9541 39.1838 14.9541 39.1838 14.9541C39.1838 14.9541 39.1838 14.9541 39.1838 14.9541C39.1838 14.9541 39.1838 14.9541 39.1838 14.9541C39.1838 14.9541 39.1838 14.9541 39.1838 14.9541C39.1838 14.9541 39.1838 14.9541 39.1838 14.9541C39.1838 14.9541 39.1838 14.9541 39.1838 14.9541C39.1838 14.9541 39.1838 14.9541 39.1838 14.9541C39.1838 14.9541 39.1838 14.9541 39.1838 14.9541C39.1838 14.9541 39.1838 14.9541 39.1838 14.9541C39.1838 14.9541 39.1838 14.9541 39.1838 14.9541C39.1838 14.9541 39.1838 14.9541 39.1838 14.9541C39.1838 14.9541 39.1838 14.9541 39.1838 14.9541C39.1838 14.9541 39.1838 14.9541 39.1838 14.9541C39.1838 14.9541 39.1838 14.9541 39.1838 14.9541C39.1838 14.9541 39.1838 14.9541 39.1838 14.9541C39.1838 14.9541 39.1838 14.9541 39.1838 14.9541C39.1838 14.9541 39.1838 14.9541 39.1838 14.9541C39.1838 14.9541 39.1838 14.9541 39.1838 14.9541C39.1838 14.9541 39.1838 14.9541 39.1838 14.9541C39.1838 14.9541 39.1838 14.9541 39.1838 14.9541C39.1838 14.9541 39.1838 14.9541 39.1838 14.9541C39.1838 14.9541 39.1838 14.9541 39.1838 14.9541C39.1838 14.9541 39.1838 14.9541 39.1838 14.9541C39.1838 14.9541 39.1838 14.9541 39.1838 14.9541C39.1838 14.9541 39.1838 14.9541 39.1838 14.9541C39.1838 14.9541 39.1838 14.9541 39.1838 14.9541C39.1838 14.9541 39.1838 14.9541 39.1838 14.9541C39.1838 14.9541 39.1838 14.9541 39.1838 14.9541C39.1838 14.9541 39.1838 14.9541 39.1838 14.9541C39.1838 14.9541 39.1838 14.9541 39.1838 14.9541C39.1838 14.9541 39.1838 14.9541 39.1838 14.9541C39.1838 14.9541 39.1838 14.9541 39.1838 14.9541C39.1838 14.9541 39.1838 14.9541 39.1838 14.9541C39.1838 14.9541 39.1838 14.9541 39.1838 14.9541C39.1838 14.9541 39.1838 14.9541 39.1838 14.9541C39.1838 14.9541 39.1838 14.9541 39.1838 14.9541C39.1838 14.9541 39.1838 14.9541 39.1838 14.9541C39.1838 14.9541 39.1838 14.9541 39.1838 14.9541C39.1838 14.9541 39.1838 14.9541 39.1838 14.9541C39.1838 14.9541 39.1838 14.9541 39.1838 14.9541C39.1838 14.9541 39.1838 14.9541 39.1838 14.9541C39.1838 14.9541 39.1838 14.9541 39.1838 14.9541C39.1838 14.9541 39.1838 14.9541 39.1838 14.9541C39.1838 14.9541 39.1838 14.9541 39.1838 14.9541C39.1838 14.9541 39.1838 14.9541 39.1838 14.9541C39.1838 14.9541 39.1838 14.9541 39.1838 14.9541C39.1838 14.9541 39.1838 14.9541 39.1838 14.9541C39.1838 14.9541 39.1838 14.9541 39.1838 14.9541C39.1838 14.9541 39.1838 14.9541 39.1838 14.9541C39.1838 14.9541 39.1838 14.9541 39.1838 14.9541C39.1838 14.9541 39.1838 14.9541 39.1838 14.9541C39.1838 14.9541 39.1838 14.9541 39.1838 14.9541C39.1838 14.9541 39.1838 14.9541 39.1838 14.9541C39.1838 14.9541 39.1838 14.9541 39.1838 14.9541C39.1838 14.9541 39.1838 14.9541 39.1838 14.9541C39.1838 14.9541 39.1838 14.9541 39.1838 14.9541C39.1838 14.9541 39.1838 14.9541 39.1838 14.9541C39.1838 14.9541 39.1838 14.9541 39.1838 14.9541C39.1838 14.9541 39.1838 14.9541 39.1838 14.9541C39.1838 14.9541 39.1838 14.9541 39.1838 14.9541C39.1838 14.9541 39.1838 14.9541 39.1838 14.9541C39.1838 14.9541 39.1838 14.9541 39.1838 14.9541C39.1838 14.9541 39.1838 14.9541 39.1838 14.9541C39.1838 14.9541 39.1838 14.9541 39.1838 14.9541C39.1838 14.9541 39.1838 14.9541 39.1838 14.9541C39.1838 14.9541 39.1838 14.9541 39.1838 14.9541C39.1838 14.9541 39.1838 14.9541 39.1838 14.9541C39.1838 14.9541 39.1838 14.9541 39.1838 14.9541C39.1838 14.9541 39.1838 14.9541 39.1838 14.9541C39.1838 14.9541 39.1838 14.9541 39.1838 14.9541C39.1838 14.9541 39.1838 14.9541 39.1838 14.9541C39.1838 14.9541 39.1838 14.9541 39.1838 14.9541C39.1838 14.9541 39.1838 14.9541 39.1838 14.9541C39.1838 14.9541 39.1838 14.9541 39.1838 14.9541C39.1838 14.9541 39.1838 14.9541 39.1838 14.9541C39.1838 14.9541 39.1838 14.9541 39.1838 14.9541C39.1838 14.9541 39.1838 14.9541 39.1838 14.9541C39.1838 14.9541 39.1838 14.9541 39.1838 14.9541C39.1838 14.9541 39.1838 14.9541 39.1838 14.9541C39.1838 14.9541 39.1838 14.9541 39.1838 14.9541C39.1838 14.9541 39.1838 14.9541 39.1838 14.9541C39.1838 14.9541 39.1838 14.9541 39.1838 14.9541C39.1838 14.9541 39.1838 14.9541 39.1838 14.9541C39.1838 14.9541 39.1838 14.9541 39.1838 14.9541C39.1838 14.9541 39.1838 14.9541 39.1838 14.9541C39.1838 14.9541 39.1838 14.9541 39.1838 14.9541C39.1838 14.9541 39.1838 14.9541 39.1838 14.9541C39.1838 14.9541 39.1838 14.9541 39.1838 14.9541C39.1838 14.9541 39.1838 14.9541 39.1838 14.9541C39.1838 14.9541 39.1838 14.9541 39.1838 14.9541C39.1838 14.9541 39.1838 14.9541 39.1838 14.9541C39.1838 14.9541 39.1838 14.9541 39.1838 14.9541C39.1838 14.9541 39.1838 14.9541 39.1838 14.9541C39.1838 14.9541 39.1838 14.9541 39.1838 14.9541C39.1838 14.9541 39.1838 14.9541 39.1838 14.9541C39.1838 14.9541 39.1838 14.9541 39.1838 14.9541C39.1838 14.9541 39.1838 14.9541 39.1838 14.9541C39.1838 14.9541 39.1838 14.9541 39.1838 14.9541C39.1838 14.9541 39.1838 14.9541 39.1838 14.9541C39.1838 14.9541 39.1838 14.9541 39.1838 14.9541C39.1838 14.9541 39.1838 14.9541 39.1838 14.9541C39.1838 14.9541 39.1838 14.9541 39.1838 14.9541C39.1838 14.9541 39.1838 14.9541 39.1838 14.9541C39.1838 14.9541 39.1838 14.9541 39.1838 14.9541C39.1838 14.9541 39.1838 14.9541 39.1838 14.9541C39.1838 14.9541 39.1838 14.9541 39.1837 14.9541C39.1837 14.9541 39.1837 14.9541 39.1837 14.9541C39.1837 14.9541 39.1837 14.9541 39.1837 14.9541C39.1837 14.9541 39.1837 14.9541 39.1837 14.9541C39.1837 14.9541 39.1837 14.9541 39.1837 14.9541C39.1837 14.9541 39.1837 14.9541 39.1837 14.9541C39.1837 14.9541 39.1837 14.9541 39.1837 14.9541C39.1837 14.9541 39.1837 14.9541 39.1837 14.9541C39.1837 14.9541 39.1837 14.9541 39.1837 14.9541C39.1837 14.9541 39.1837 14.9541 39.1837 14.9541C39.1837 14.9541 39.1837 14.9541 39.1837 14.9541C39.1837 14.9541 39.1837 14.9541 39.1837 14.9541C39.1837 14.9541 39.1837 14.9541 39.1837 14.9541C39.1837 14.9541 39.1837 14.9541 39.1837 14.9541C39.1837 14.9541 39.1837 14.9541 39.1837 14.9541C39.1837 14.9541 39.1837 14.9541 39.1837 14.9541C39.1837 14.9541 39.1837 14.9541 39.1837 14.9541C39.1837 14.9541 39.1837 14.9541 39.1837 14.9541C39.1837 14.9541 39.1837 14.9541 39.1837 14.9541C39.1837 14.9541 39.1837 14.9541 39.1837 14.9541C39.1837 14.9541 39.1837 14.9541 39.1837 14.9541C39.1837 14.9541 39.1837 14.9541 39.1837 14.9541C39.1837 14.9541 39.1837 14.9541 39.1837 14.9541C39.1837 14.9541 39.1837 14.9541 39.1837 14.9541C39.1837 14.9541 39.1837 14.9541 39.1837 14.9541C39.1837 14.9541 39.1837 14.9541 39.1837 14.9541C39.1837 14.9541 39.1837 14.9541 39.1837 14.9541C39.1837 14.9541 39.1837 14.9541 39.1837 14.9541C39.1837 14.9541 39.1837 14.9541 39.1837 14.9541C39.1837 14.9541 39.1837 14.9541 39.1837 14.9541C39.1837 14.9541 39.1837 14.9541 39.1837 14.9541C39.1837 14.9541 39.1837 14.9541 39.1837 14.9541C39.1837 14.9541 39.1837 14.9541 39.1837 14.9541C39.1837 14.9541 39.1837 14.9541 39.1837 14.9541C39.1837 14.9541 39.1837 14.9541 39.1837 14.9541C39.1837 14.9541 39.1837 14.9541 39.1837 14.9541C39.1837 14.9541 39.1837 14.9541 39.1837 14.9541C39.1837 14.9541 39.1837 14.9541 39.1837 14.9541C39.1837 14.9541 39.1837 14.9541 39.1837 14.9541C39.1837 14.9541 39.1837 14.9541 39.1837 14.9541C39.1837 14.9541 39.1837 14.9541 39.1837 14.9541C39.1837 14.9541 39.1837 14.9541 39.1837 14.9541C39.1837 14.9541 39.1837 14.9541 39.1837 14.9541C39.1837 14.9541 39.1837 14.9541 39.1837 14.9541C39.1837 14.9541 39.1837 14.9541 39.1837 14.9541C39.1837 14.9541 39.1837 14.9541 39.1837 14.9541C39.1837 14.9541 39.1837 14.9541 39.1837 14.9541C39.1837 14.9541 39.1837 14.9541 39.1837 14.9541C39.1837 14.9541 39.1837 14.9541 39.1837 14.9541C39.1837 14.9541 39.1837 14.9541 39.1837 14.9541C39.1837 14.9541 39.1837 14.9541 39.1837 14.9541C39.1837 14.9541 39.1837 14.9541 39.1837 14.9541C39.1837 14.9541 39.1837 14.9541 39.1837 14.9541C39.1837 14.9541 39.1837 14.9541 39.1837 14.9541C39.1837 14.9541 39.1837 14.9541 39.1837 14.9541C39.1837 14.9541 39.1837 14.9541 39.1837 14.9541C39.1837 14.9541 39.1837 14.9541 39.1837 14.9541C39.1837 14.9541 39.1837 14.9541 39.1837 14.9541C39.1837 14.9541 39.1837 14.9541 39.1837 14.9541C39.1837 14.9541 39.1837 14.9541 39.1837 14.9541C39.1837 14.9541 39.1837 14.9541 39.1837 14.9541C39.1837 14.9541 39.1837 14.9541 39.1837 14.9541C39.1837 14.9541 39.1837 14.9541 39.1837 14.9541C39.1837 14.9541 39.1837 14.9541 39.1837 14.9541C39.1837 14.9541 39.1837 14.9541 39.1837 14.9541C39.1837 14.9541 39.1837 14.9541 39.1837 14.9541C39.1837 14.9541 39.1837 14.9541 39.1837 14.9541C39.1837 14.9541 39.1837 14.9541 39.1837 14.9541C39.1837 14.9541 39.1837 14.9541 39.1837 14.9541C39.1837 14.9541 39.1837 14.9541 39.1837 14.9541C39.1837 14.9541 39.1837 14.9541 39.1837 14.9541C39.1837 14.9541 39.1837 14.9541 39.1837 14.9541C39.1837 14.9541 39.1837 14.9541 39.1837 14.9541C39.1837 14.9541 39.1837 14.9541 39.1837 14.9541C39.1837 14.9541 39.1837 14.9541 39.1837 14.9541C39.1837 14.9541 39.1837 14.9541 39.1837 14.9541C39.1837 14.9541 39.1837 14.9541 39.1837 14.9541C39.1837 14.9541 39.1837 14.9541 39.1837 14.9541C39.1837 14.9541 39.1837 14.9541 39.1837 14.9541C39.1837 14.9541 39.1837 14.9541 39.1837 14.9541C39.1837 14.9541 39.1837 14.9541 39.1837 14.9541C39.1837 14.9541 39.1837 14.9541 39.1837 14.9541C39.1837 14.9541 39.1837 14.9541 39.1837 14.9541C39.1837 14.9541 39.1837 14.9541 39.1837 14.9541C39.1837 14.9541 39.1837 14.9541 39.1837 14.9541C39.1837 14.9541 39.1837 14.9541 39.1837 14.9541C39.1837 14.9541 39.1837 14.9541 39.1837 14.9541C39.1837 14.9541 39.1837 14.9541 39.1837 14.9541C39.1837 14.9541 39.1837 14.9541 39.1837 14.9541C39.1837 14.9541 39.1837 14.9541 39.1837 14.9541C39.1837 14.9541 39.1837 14.9541 39.1837 14.9541C39.1837 14.9541 39.1837 14.9541 39.1837 14.9541C39.1837 14.9541 39.1837 14.9541 39.1837 14.9541C39.1837 14.9541 39.1837 14.9541 39.1837 14.9541C39.1837 14.9541 39.1837 14.9541 39.1837 14.9541C39.1837 14.9541 39.1837 14.9541 39.1837 14.9541C39.1837 14.9541 39.1837 14.9541 39.1837 14.9541C39.1837 14.9541 39.1837 14.9541 39.1837 14.9541C39.1837 14.9541 39.1837 14.9541 39.1837 14.9541C39.1837 14.9541 39.1837 14.9541 39.1837 14.9541C39.1837 14.9541 39.1837 14.9541 39.1837 14.9541C39.1837 14.9541 39.1837 14.9541 39.1837 14.9541C39.1837 14.9541 39.1837 14.9541 39.1837 14.9541C39.1837 14.9541 39.1837 14.9541 39.1837 14.9541C39.1837 14.9541 39.1837 14.9541 39.1837 14.9541C39.1837 14.9541 39.1837 14.9541 39.1837 14.9541C39.1837 14.9541 39.1837 14.9541 39.1837 14.9541C39.1837 14.9541 39.1837 14.9541 39.1837 14.9541C39.1837 14.9541 39.1837 14.9541 39.1837 14.9541C39.1837 14.9541 39.1837 14.9541 39.1837 14.9541C39.1837 14.9541 39.1837 14.9541 39.1837 14.9541C39.1837 14.9541 39.1837 14.9541 39.1837 14.9541C39.1837 14.9541 39.1837 14.9541 39.1837 14.9541C39.1837 14.9541 39.1837 14.9541 39.1837 14.9541C39.1837 14.9541 39.1837 14.9541 39.1837 14.9541C39.1837 14.9541 39.1837 14.9541 39.1837 14.9541C39.1837 14.9541 39.1837 14.9541 39.1837 14.9541C39.1837 14.9541 39.1837 14.9541 39.1837 14.9541C39.1837 14.9541 39.1837 14.9541 39.1837 14.9541C39.1837 14.9541 39.1837 14.9541 39.1837 14.9541C39.1837 14.9541 39.1837 14.9541 39.1837 14.9541C39.1837 14.9541 39.1837 14.9541 39.1837 14.9541C39.1837 14.9541 39.1837 14.9541 39.1837 14.9541C39.1837 14.9541 39.1837 14.9541 39.1837 14.9541C39.1837 14.9541 39.1837 14.9541 39.1837 14.9541C39.1837 14.9541 39.1837 14.9541 39.1837 14.9541C39.1837 14.9541 39.1837 14.9541 39.1837 14.9541C39.1837 14.9541 39.1837 14.9541 39.1837 14.9541C39.1837 14.9541 39.1837 14.9541 39.1837 14.9541C39.1837 14.9541 39.1837 14.9541 39.1837 14.9541C39.1837 14.9541 39.1837 14.9541 39.1837 14.9541C39.1837 14.9541 39.1837 14.9541 39.1837 14.9541C39.1837 14.9541 39.1837 14.9541 39.1837 14.9541C39.1837 14.9541 39.1837 14.9541 39.1837 14.9541C39.1837 14.9541 39.1837 14.9541 39.1837 14.9541C39.1837 14.9541 39.1837 14.9541 39.1837 14.9541C39.1837 14.9541 39.1837 14.9541 39.1837 14.9541C39.1837 14.9541 39.1837 14.9541 39.1837 14.9541C39.1837 14.9541 39.1837 14.9541 39.1837 14.9541C39.1837 14.9541 39.1837 14.9541 39.1837 14.9541C39.1837 14.9541 39.1837 14.9541 39.1837 14.9541C39.1837 14.9541 39.1837 14.9541 39.1837 14.9541C39.1837 14.9541 39.1837 14.9541 39.1837 14.9541C39.1837 14.9541 39.1837 15.0541 39.1837 15.1541C39.1837 15.1541 39.1837 15.1541 39.1837 15.1541C39.1837 15.1541 39.1837 15.1541 39.1837 15.1541C39.1837 15.1541 39.1837 15.1541 39.1837 15.1541C39.1837 15.1541 39.1837 15.1541 39.1837 15.1541C39.1837 15.1541 39.1837 15.1541 39.1837 15.1541C39.1837 15.1541 39.1837 15.1541 39.1837 15.1541C39.1837 15.1541 39.1837 15.1541 39.1837 15.1541C39.1837 15.1541 39.1837 15.1541 39.1837 15.1541C39.1837 15.1541 39.1837 15.1541 39.1837 15.1541C39.1837 15.1541 39.1837 15.1541 39.1837 15.1541C39.1837 15.1541 39.1837 15.1541 39.1837 15.1541C39.1837 15.1541 39.1837 15.1541 39.1837 15.1541C39.1837 15.1541 39.1837 15.1541 39.1837 15.1541C39.1837 15.1541 39.1837 15.1541 39.1837 15.1541C39.1837 15.1541 39.1837 15.1541 39.1837 15.1541C39.1837 15.1541 39.1837 15.1541 39.1837 15.1541C39.1837 15.1541 39.1837 15.1541 39.1837 15.1541C39.1837 15.1541 39.1837 15.1541 39.1837 15.1541C39.1837 15.1541 39.1837 15.1541 39.1837 15.1541C39.1837 15.1541 39.1837 15.1541 39.1837 15.1541C39.1837 15.1541 39.1837 15.1541 39.1837 15.1541C39.1837 15.1541 39.1837 15.1541 39.1837 15.1541C39.1837 15.1541 39.1837 15.1541 39.1837 15.1541C39.1837 15.1541 39.1837 15.1541 39.1837 15.1541C39.1837 15.1541 39.1837 15.1541 39.1837 15.1541C39.1837 15.1541 39.1837 15.1541 39.1837 15.1541C39.1837 15.1541 39.1837 15.1541 39.1837 15.1541C39.1837 15.1541 39.1837 15.1541 39.1837 15.1541C39.1837 15.1541 39.1837 15.1541 39.1837 15.1541C39.1837 15.1541 39.1837 15.1541 39.1837 15.1541C39.1837 15.1541 39.1837 15.1541 39.1837 15.1541C39.1837 15.1541 39.1837 15.1541 39.1837 15.1541C39.1837 15.1541 39.1837 15.1541 39.1837 15.1541C39.1837 15.1541 39.1837 15.1541 39.1837 15.1541C39.1837 15.1541 39.1837 15.1541 39.1837 15.1541C39.1837 15.1541 39.1837 15.1541 39.1837 15.1541C39.1837 15.1541 39.1837 15.1541 39.1837 15.1541C39.1837 15.1541 39.1837 15.1541 39.1837 15.1541C39.1837 15.1541 39.1837 15.1541 39.1837 15.1541C39.1837 15.1541 39.1837 15.1541 39.1837 15.1541C39.1837 15.1541 39.1837 15.1541 39.1837 15.1541C39.1837 15.1541 39.1837 15.1541 39.1837 15.1541C39.1837 15.1541 39.1837 15.1541 39.1837 15.1541C39.1837 15.1541 39.1837 15.1541 39.1837 15.1541C39.1837 15.1541 39.1837 15.1541 39.1837 15.1541C39.1837 15.1541 39.1837 15.1541 39.1837 15.1541C39.1837 15.1541 39.1837 15.1541 39.1837 15.1541C39.1837 15.1541 39.1837 15.1541 39.1837 15.1541C39.1837 15.1541 39.1837 15.1541 39.1837 15.1541C39.1837 15.1541 39.1837 15.1541 39.1837 15.1541C39.1837 15.1541 39.1837 15.1541 39.1837 15.1541C39.1837 15.1541 39.1837 15.1541 39.1837 15.1541C39.1837 15.1541 39.1837 15.1541 39.1837 15.1541C39.1837 15.1541 39.1837 15.1541 39.1837 15.1541C39.1837 15.1541 39.1837 15.1541 39.1837 15.1541C39.1837 15.1541 39.1837 15.1541 39.1837 15.1541C39.1837 15.1541 39.1837 15.1541 39.1837 15.1541C39.1837 15.1541 39.1837 15.1541 39.1837 15.1541C39.1837 15.1541 39.1837 15.1541 39.1837 15.1541C39.1837 15.1541 39.1837 15.1541 39.1837 15.1541C39.1837 15.1541 39.1837 15.1541 39.1837 15.1541C39.1837 15.1541 39.1837 15.1541 39.1837 15.1541C39.1837 15.1541 39.1837 15.1541 39.1837 15.1541C39.1837 15.1541 39.1837 15.1541 39.1837 15.1541C39.1837 15.1541 39.1837 15.1541 39.1837 15.1541C39.1837 15.1541 39.1837 15.1541 39.1837 15.1541C39.1837 15.1541 39.1837 15.1541 39.1837 15.1541C39.1837 15.1541 39.1837 15.1541 39.1837 15.1541C39.1837 15.1541 39.1837 15.1541 39.1837 15.1541C39.1837 15.1541 39.1837 15.1541 39.1837 15.1541C39.1837 15.1541 39.1837 15.1541 39.1837 15.1541C39.1837 15.1541 39.1837 15.1541 39.1837 15.1541C39.1837 15.1541 39.1837 15.1541 39.1837 15.1541C39.1837 15.1541 39.1837 15.1541 39.1837 15.1541C39.1837 15.1541 39.1837 15.1541 39.1837 15.1541C39.1837 15.1541 39.1837 15.1541 39.1837 15.1541C39.1837 15.1541 39.1837 15.1541 39.1837 15.1541C39.1837 15.1541 39.1837 15.1541 39.1837 15.1541C39.1837 15.1541 39.1837 15.1541 39.1837 15.1541C39.1837 15.1541 39.1837 15.1541 39.1837 15.1541C39.1837 15.1541 39.1837 15.1541 39.1837 15.1541C39.1837 15.1541 39.1837 15.1541 39.1837 15.1541C39.1837 15.1541 39.1837 15.1541 39.1837 15.1541C39.1837 15.1541 39.1837 15.1541 39.1837 15.1541C39.1837 15.1541 39.1837 15.1541 39.1837 15.1541C39.1837 15.1541 39.1837 15.1541 39.1837 15.1541C39.1837 15.1541 39.1837 15.1541 39.1837 15.1541C39.1837 15.1541 39.1837 15.1541 39.1837 15.1541C39.1837 15.1541 39.1837 15.1541 39.1837 15.1541C39.1837 15.1541 39.1837 15.1541 39.1837 15.1541C39.1837 15.1541 39.1837 15.1541 39.1837 15.1541C39.1837 15.1541 39.1837 15.1541 39.1837 15.1541C39.1837 15.1541 39.1837 15.1541 39.1837 15.1541C39.1837 15.1541 39.1837 15.1541 39.1837 15.1541C39.1837 15.1541 39.1837 15.1541 39.1837 15.1541C39.1837 15.1541 39.1837 15.1541 39.1837 15.1541C39.1837 15.1541 39.1837 15.1541 39.1837 15.1541C39.1837 15.1541 39.1837 15.1541 39.1837 15.1541C39.1837 15.1541 39.1837 15.1541 39.1837 15.1541C39.1837 15.1541 39.1837 15.1541 39.1837 15.1541C39.1837 15.1541 39.1837 15.1541 39.1837 15.1541C39.1837 15.1541 39.1837 15.1541 39.1837 15.1541C39.1837 15.1541 39.1837 15.1541 39.1837 15.1541C39.1837 15.1541 39.1837 15.1541 39.1837 15.1541C39.1837 15.1541 39.1837 15.1541 39.1837 15.1541C39.1837 15.1541 39.1838 15.1541 39.1838 15.1541V14.9541ZM39.1837 14.9541L37.5484 14.9543L37.5485 15.1543L39.1838 15.1541L39.1837 14.9541ZM37.5484 14.9543C37.5781 14.9543 37.5954 14.9712 37.6005 14.9776C37.6056 14.9838 37.6066 14.9882 37.607 14.9902L37.4112 15.031C37.416 15.054 37.4264 15.0802 37.4448 15.1031C37.4634 15.1261 37.4981 15.1543 37.5484 15.1543V14.9543ZM37.607 14.9901C37.154 12.8238 36.1384 10.7821 34.6699 9.0851L34.5187 9.21597C35.9652 10.8876 36.9653 12.8985 37.4113 15.0311L37.607 14.9901ZM34.6699 9.0851C33.2506 7.44493 31.433 6.1553 29.4064 5.34529L29.3322 5.531C31.3295 6.32928 33.1205 7.60024 34.5187 9.21597L34.6699 9.0851ZM29.4665 5.41454C29.138 4.06261 28.4429 2.66307 27.069 1.61057L26.9474 1.76934C28.2762 2.78734 28.9515 4.14218 29.2721 5.46175L29.4665 5.41454ZM27.069 1.61057C25.7412 0.593318 24.404 0.396887 24.3408 0.388019L24.313 0.58608C24.3605 0.592751 25.6587 0.782054 26.9474 1.76934L27.069 1.61057ZM24.3406 0.388002C24.1304 0.358778 23.9164 0.419738 23.7549 0.556331L23.884 0.709049C24.0016 0.609661 24.1584 0.564591 24.3131 0.586097L24.3406 0.388002ZM23.7549 0.556331C23.5933 0.693 23.4998 0.891842 23.4998 1.10183H23.6998C23.6998 0.951683 23.7666 0.80836 23.884 0.709049L23.7549 0.556331ZM23.4998 1.10183V4.45537H23.6998V1.10183H23.4998ZM23.5998 4.35537H21.2883V4.55537H23.5998V4.35537ZM21.3841 4.42674C20.8002 2.47313 18.9496 1.04327 16.7634 1.04327V1.24327C18.8614 1.24327 20.6339 2.61531 21.1925 4.48401L21.3841 4.42674ZM16.7634 1.04327C14.5308 1.04327 12.6471 2.53411 12.1061 4.55158L12.2993 4.60338C12.8167 2.67392 14.6207 1.24327 16.7634 1.24327V1.04327ZM12.1896 4.47835C9.01744 4.89963 6.09861 6.39808 3.93262 8.72825L4.0791 8.86442C6.21311 6.56867 9.08928 5.09185 12.2159 4.67661L12.1896 4.47835ZM3.93261 8.72825C1.65484 11.1789 0.4 14.3518 0.4 17.6624H0.6C0.6 14.4029 1.83531 11.2785 4.07911 8.86441L3.93261 8.72825ZM0.4 17.6624C0.4 25.0682 4.34158 31.0891 5.5486 32.7572L5.71062 32.6399C4.51077 30.9818 0.6 25.0037 0.6 17.6624H0.4ZM5.54859 32.7571C5.93959 33.2976 6.5789 33.6191 7.2582 33.6191V33.4191C6.64141 33.4191 6.06306 33.127 5.71063 32.6399L5.54859 32.7571ZM7.2582 33.6191H9.96922V33.4191H7.2582V33.6191ZM9.96922 33.6191C11.1225 33.6191 12.065 32.7038 12.065 31.5732H11.865C11.865 32.5886 11.0169 33.4191 9.96922 33.4191V33.6191ZM12.065 31.5732V30.7136H11.865V31.5732H12.065ZM11.9502 30.8125C12.641 30.9163 13.3429 30.9694 14.0457 30.9694V30.7694C13.353 30.7694 12.661 30.717 11.9798 30.6148L11.9502 30.8125ZM14.0457 30.9694H20.2028V30.7694H14.0457V30.9694ZM20.1028 30.8694V31.5732H20.3028V30.8694H20.1028ZM20.1028 31.5732C20.1028 32.7038 21.0453 33.6191 22.1986 33.6191V33.4191C21.151 33.4191 20.3028 32.5886 20.3028 31.5732H20.1028ZM22.1986 33.6191H25.1765V33.4191H22.1986V33.6191ZM25.1765 33.6191C26.1566 33.6191 27.0193 32.9411 27.2256 32.0025L27.0302 31.9595C26.8448 32.8033 26.066 33.4191 25.1765 33.4191V33.6191ZM27.2256 32.0025L27.5524 30.5153L27.3571 30.4723L27.0302 31.9595L27.2256 32.0025ZM27.4779 30.5911C31.6945 29.5899 35.0856 26.7055 36.7549 22.9612L36.5722 22.8798C34.9282 26.5673 31.5875 29.4098 27.4317 30.3965L27.4779 30.5911ZM36.6635 23.0205H39.1837V22.8205H36.6635V23.0205ZM39.1837 23.0205C39.9624 23.0205 40.6 22.4024 40.6 21.6371H40.4C40.4 22.2872 39.8567 22.8205 39.1837 22.8205V23.0205ZM40.6 21.6371V16.3377H40.4V21.6371H40.6ZM40.6 16.3377C40.6 15.9673 40.452 15.6193 40.1842 15.3583L40.0446 15.5015C40.2743 15.7254 40.4 16.022 40.4 16.3377H40.6ZM16.7633 2.4854C18.607 2.4854 20.1027 3.9474 20.1027 5.73895H20.3027C20.3027 3.8322 18.7127 2.2854 16.7633 2.2854V2.4854ZM20.1027 5.73895C20.1027 6.19718 20.0021 6.6488 19.8123 7.06356L19.9942 7.14677C20.1957 6.70643 20.3027 6.22647 20.3027 5.73895H20.1027ZM19.9033 7.00517H13.6232V7.20517H19.9033V7.00517ZM13.7141 7.06359C13.5244 6.64864 13.4237 6.19716 13.4237 5.73895H13.2237C13.2237 6.22649 13.3309 6.70628 13.5323 7.14675L13.7141 7.06359ZM13.4237 5.73895C13.4237 3.94732 14.9195 2.4854 16.7633 2.4854V2.2854C14.8139 2.2854 13.2237 3.83212 13.2237 5.73895H13.4237ZM39.1261 21.6369C39.1261 21.6023 39.1542 21.5784 39.1836 21.5784V21.7784C39.2601 21.7784 39.3261 21.7173 39.3261 21.6369H39.1261ZM39.1836 21.5784H37.1423V21.7784H39.1836V21.5784ZM37.2374 21.7095C37.587 20.6422 37.8022 19.5197 37.8638 18.3623L37.664 18.3517C37.6034 19.4912 37.3916 20.5963 37.0473 21.6472L37.2374 21.7095ZM37.8638 18.3623C37.8851 17.9622 37.57 17.6252 37.1658 17.6048L37.1557 17.8045C37.4542 17.8196 37.6793 18.0668 37.664 18.3516L37.8638 18.3623ZM37.1657 17.6048C36.7619 17.5848 36.4131 17.8873 36.3919 18.2874L36.5916 18.298C36.6067 18.0129 36.857 17.7897 37.1558 17.8045L37.1657 17.6048ZM36.3919 18.2874C36.1244 23.3157 32.6138 27.6114 27.7269 29.0323L27.7828 29.2243C32.7481 27.7806 36.3194 23.4145 36.5916 18.298L36.3919 18.2874ZM27.8525 29.1497L28.7424 25.1008L28.5471 25.0579L27.6572 29.1068L27.8525 29.1497ZM28.7424 25.1008C28.8286 24.709 28.5721 24.3269 28.1758 24.2441L28.135 24.4399C28.4267 24.5008 28.6084 24.779 28.5471 25.0579L28.7424 25.1008ZM28.1759 24.2441C27.7805 24.1613 27.3874 24.4067 27.3015 24.7977L27.4968 24.8406C27.5583 24.5608 27.8428 24.3787 28.1349 24.4399L28.1759 24.2441ZM27.3015 24.7977L25.7846 31.6992L25.9799 31.7421L27.4968 24.8406L27.3015 24.7977ZM25.7846 31.6992C25.7242 31.9741 25.4692 32.177 25.1765 32.177V32.377C25.5598 32.377 25.8986 32.1119 25.9799 31.7421L25.7846 31.6992ZM25.1765 32.177H22.1984V32.377H25.1765V32.177ZM22.1984 32.177C21.8532 32.177 21.5766 31.9037 21.5766 31.5732H21.3766C21.3766 32.0189 21.7476 32.377 22.1984 32.377V32.177ZM21.5766 31.5732V28.9235H21.3766V31.5732H21.5766ZM21.5766 28.9235C21.5766 28.5229 21.2442 28.2024 20.8396 28.2024V28.4024C21.1386 28.4024 21.3766 28.6381 21.3766 28.9235H21.5766ZM20.8396 28.2024C20.435 28.2024 20.1027 28.5229 20.1027 28.9235H20.3027C20.3027 28.6381 20.5406 28.4024 20.8396 28.4024V28.2024ZM20.1027 28.9235V29.6273H20.3027V28.9235H20.1027ZM20.2027 29.5273H14.0455V29.7273H20.2027V29.5273ZM14.0455 29.5273C13.3523 29.5273 12.6602 29.4692 11.9812 29.3563L11.9484 29.5536C12.6381 29.6682 13.3412 29.7273 14.0455 29.7273V29.5273ZM12.0648 29.455V24.949H11.8648V29.455H12.0648ZM12.0648 24.949C12.0648 24.5484 11.7325 24.228 11.3279 24.228V24.428C11.6269 24.428 11.8648 24.6636 11.8648 24.949H12.0648ZM11.3279 24.228C10.9233 24.228 10.5909 24.5484 10.5909 24.949H10.7909C10.7909 24.6636 11.0289 24.428 11.3279 24.428V24.228ZM10.5909 24.949V31.5732H10.7909V24.949H10.5909ZM10.5909 31.5732C10.5909 31.9037 10.3143 32.1771 9.96906 32.1771V32.3771C10.4199 32.3771 10.7909 32.0189 10.7909 31.5732H10.5909ZM9.96906 32.1771H7.2582V32.3771H9.96906V32.1771ZM7.2582 32.1771C7.05098 32.1771 6.86741 32.0842 6.75159 31.924L6.58951 32.0412C6.74431 32.2553 6.98918 32.3771 7.2582 32.3771V32.1771ZM6.75157 31.924C5.6064 30.3412 1.87391 24.638 1.87391 17.6624H1.67391C1.67391 24.7026 5.43735 30.4487 6.58953 32.0412L6.75157 31.924ZM1.87391 17.6624C1.87391 14.7117 2.99203 11.8835 5.02301 9.6985L4.87652 9.56233C2.81156 11.7839 1.67391 14.6606 1.67391 17.6624H1.87391ZM5.02301 9.6985C6.88185 7.69855 9.36222 6.38533 12.0676 5.95401L12.0361 5.75651C9.28715 6.19477 6.76612 7.52928 4.87652 9.56234L5.02301 9.6985ZM11.9519 5.85785C11.9632 6.29292 12.0363 6.72303 12.1676 7.13535L12.3582 7.07468C12.2326 6.68019 12.1626 6.26875 12.1518 5.85267L11.9519 5.85785ZM12.2629 7.00501H12.0074V7.20501H12.2629V7.00501ZM12.0074 7.00501C11.6028 7.00501 11.2705 7.32544 11.2705 7.72604H11.4705C11.4705 7.44064 11.7085 7.20501 12.0074 7.20501V7.00501ZM11.2705 7.72604C11.2705 8.12664 11.6028 8.44707 12.0074 8.44707V8.24707C11.7085 8.24707 11.4705 8.01144 11.4705 7.72604H11.2705ZM12.0074 8.44707H21.5191V8.24707H12.0074V8.44707ZM21.5191 8.44707C21.9238 8.44707 22.2561 8.12664 22.2561 7.72604H22.0561C22.0561 8.01144 21.8181 8.24707 21.5191 8.24707V8.44707ZM22.2561 7.72604C22.2561 7.32544 21.9238 7.00501 21.5191 7.00501V7.20501C21.8181 7.20501 22.0561 7.44064 22.0561 7.72604H22.2561ZM21.5191 7.00501H21.2636V7.20501H21.5191V7.00501ZM21.3589 7.13537C21.5022 6.68549 21.5766 6.21449 21.5766 5.7388H21.3766C21.3766 6.19362 21.3055 6.64415 21.1683 7.07466L21.3589 7.13537ZM21.5766 5.7388C21.5766 5.72978 21.5763 5.72123 21.5761 5.71436C21.5758 5.70698 21.5756 5.70159 21.5755 5.69624L21.3756 5.69847C21.3756 5.70699 21.376 5.71535 21.3762 5.72173C21.3765 5.72863 21.3766 5.73387 21.3766 5.7388H21.5766ZM21.4755 5.79736H23.5998V5.59736H21.4755V5.79736ZM23.4998 5.69736V7.06358H23.6998V5.69736H23.4998ZM23.4998 7.06358C23.4998 7.46418 23.8321 7.78461 24.2367 7.78461V7.58461C23.9377 7.58461 23.6998 7.34898 23.6998 7.06358H23.4998ZM24.2367 7.78461C24.6413 7.78461 24.9737 7.46418 24.9737 7.06358H24.7737C24.7737 7.34898 24.5357 7.58461 24.2367 7.58461V7.78461ZM24.9737 7.06358V1.91725H24.7737V7.06358H24.9737ZM24.8391 2.01107C25.4318 2.22977 26.2849 2.67479 26.9898 3.55396C27.6936 4.43175 28.2556 5.74982 28.2556 7.72612H28.4556C28.4556 5.70911 27.8809 4.3457 27.1459 3.42886C26.4119 2.5134 25.5241 2.05064 24.9083 1.82344L24.8391 2.01107ZM28.2556 7.72612C28.2556 8.12672 28.588 8.44715 28.9926 8.44715V8.24715C28.6936 8.24715 28.4556 8.01152 28.4556 7.72612H28.2556ZM28.9926 8.44715C29.3972 8.44715 29.7295 8.12672 29.7295 7.72612H29.5295C29.5295 8.01152 29.2915 8.24715 28.9926 8.24715V8.44715ZM29.7295 7.72612C29.7295 7.46056 29.7197 7.18017 29.6971 6.89037L29.4977 6.90589C29.5199 7.19027 29.5295 7.46548 29.5295 7.72612H29.7295ZM29.5545 6.98846C31.0787 7.71234 32.4459 8.74688 33.5451 10.0171L33.6963 9.8862C32.5788 8.59473 31.1891 7.54338 29.6403 6.8078L29.5545 6.98846ZM33.5451 10.0171C34.8544 11.5302 35.7596 13.3499 36.1631 15.2792L36.3588 15.2383C35.9483 13.2752 35.0276 11.4246 33.6963 9.8862L33.5451 10.0171ZM36.1631 15.2792C36.2986 15.9276 36.8816 16.3965 37.5487 16.3964L37.5487 16.1964C36.9748 16.1965 36.4747 15.7926 36.3588 15.2383L36.1631 15.2792ZM37.5487 16.3964L39.1838 16.3963L39.1837 16.1963L37.5487 16.1964L37.5487 16.3964ZM39.1838 16.3963C39.1844 16.3963 39.1821 16.3963 39.1793 16.3961C39.1764 16.3958 39.1728 16.3952 39.1688 16.3941C39.1601 16.3917 39.1511 16.387 39.144 16.38L39.2836 16.2368C39.2424 16.1967 39.1956 16.1963 39.1838 16.1963V16.3963ZM39.1439 16.38C39.1368 16.3731 39.1316 16.3639 39.1287 16.3543C39.1274 16.3498 39.1268 16.3458 39.1264 16.3426C39.1261 16.3395 39.1262 16.337 39.1262 16.3377H39.3262C39.3262 16.3246 39.3253 16.2775 39.2836 16.2368L39.1439 16.38ZM39.1262 16.3377L39.1261 21.6369L39.3261 21.6369L39.3262 16.3377L39.1262 16.3377ZM33.7592 15.4226C33.3481 14.3473 32.2627 13.6294 31.0621 13.6294V13.8294C32.1853 13.8294 33.1928 14.5011 33.5724 15.494L33.7592 15.4226ZM31.0621 13.6294C29.8614 13.6294 28.7762 14.3472 28.3649 15.4226L28.5517 15.494C28.9315 14.501 29.9389 13.8294 31.0621 13.8294V13.6294ZM28.3649 15.4226C28.2214 15.7979 28.418 16.2128 28.7984 16.3511L28.8667 16.1632C28.5879 16.0618 28.4494 15.7615 28.5517 15.494L28.3649 15.4226ZM28.7984 16.3511C29.1777 16.4892 29.6024 16.3019 29.7453 15.9279L29.5585 15.8565C29.4558 16.1253 29.1468 16.2651 28.8668 16.1632L28.7984 16.3511ZM29.7453 15.9279C29.9397 15.4195 30.4667 15.0714 31.062 15.0714V14.8714C30.3918 14.8714 29.7853 15.2634 29.5585 15.8565L29.7453 15.9279ZM31.062 15.0714C31.6574 15.0714 32.1844 15.4195 32.3788 15.9279L32.5656 15.8565C32.3389 15.2634 31.7323 14.8714 31.062 14.8714V15.0714ZM32.3788 15.9279C32.49 16.2189 32.7719 16.3964 33.0691 16.3964V16.1964C32.8495 16.1964 32.6454 16.0653 32.5656 15.8565L32.3788 15.9279ZM33.0691 16.3964C33.1545 16.3964 33.2412 16.3818 33.3257 16.3511L33.2573 16.1632C33.1952 16.1858 33.1316 16.1964 33.0691 16.1964V16.3964ZM33.3256 16.3511C33.706 16.2128 33.9027 15.7978 33.7592 15.4226L33.5724 15.494C33.6746 15.7614 33.5362 16.0618 33.2573 16.1632L33.3256 16.3511ZM17.5002 17.189V14.0154H17.3002V17.189H17.5002ZM17.3884 14.1147C18.0022 14.1874 18.5189 14.362 18.8791 14.5771C19.2468 14.7967 19.4233 15.04 19.4233 15.2406H19.6233C19.6233 14.9284 19.3631 14.6332 18.9816 14.4054C18.5926 14.1731 18.0477 13.9914 17.412 13.9161L17.3884 14.1147ZM19.4233 15.2406C19.4233 15.6412 19.7556 15.9616 20.1603 15.9616V15.7616C19.8613 15.7616 19.6233 15.526 19.6233 15.2406H19.4233ZM20.1603 15.9616C20.5649 15.9616 20.8972 15.6412 20.8972 15.2406H20.6972C20.6972 15.526 20.4592 15.7616 20.1603 15.7616V15.9616ZM20.8972 15.2406C20.8972 14.5642 20.5111 13.9646 19.8881 13.5151C19.2652 13.0657 18.3979 12.7597 17.4096 12.6662L17.3908 12.8653C18.3515 12.9562 19.1828 13.2529 19.7711 13.6773C20.3594 14.1018 20.6972 14.6473 20.6972 15.2406H20.8972ZM17.5002 12.7658V12.6944H17.3002V12.7658H17.5002ZM17.5002 12.6944C17.5002 12.2938 17.1679 11.9734 16.7632 11.9734V12.1734C17.0622 12.1734 17.3002 12.409 17.3002 12.6944H17.5002ZM16.7632 11.9734C16.3586 11.9734 16.0263 12.2938 16.0263 12.6944H16.2263C16.2263 12.409 16.4643 12.1734 16.7632 12.1734V11.9734ZM16.0263 12.6944V12.7658H16.2263V12.6944H16.0263ZM16.1169 12.6662C15.1286 12.7597 14.2613 13.0657 13.6384 13.5151C13.0154 13.9646 12.6292 14.5642 12.6292 15.2406H12.8292C12.8292 14.6473 13.1671 14.1018 13.7554 13.6773C14.3437 13.2529 15.1749 12.9562 16.1357 12.8653L16.1169 12.6662ZM12.6292 15.2406C12.6292 16.1889 13.1129 16.8337 13.7868 17.2908C14.4561 17.7447 15.3199 18.0187 16.0998 18.2326L16.1527 18.0397C15.3732 17.8259 14.5384 17.5588 13.8991 17.1253C13.2644 16.6948 12.8292 16.1057 12.8292 15.2406H12.6292ZM16.0263 18.1361V21.3097H16.2263V18.1361H16.0263ZM16.138 21.2104C15.5243 21.1377 15.0076 20.9631 14.6474 20.748C14.2797 20.5284 14.1032 20.2851 14.1032 20.0845H13.9032C13.9032 20.3967 14.1634 20.6919 14.5449 20.9197C14.9339 21.152 15.4787 21.3337 16.1145 21.409L16.138 21.2104ZM14.1032 20.0845C14.1032 19.6839 13.7708 19.3635 13.3662 19.3635V19.5635C13.6652 19.5635 13.9032 19.7991 13.9032 20.0845H14.1032ZM13.3662 19.3635C12.9616 19.3635 12.6292 19.6839 12.6292 20.0845H12.8292C12.8292 19.7991 13.0672 19.5635 13.3662 19.5635V19.3635ZM12.6292 20.0845C12.6292 20.7609 13.0154 21.3605 13.6384 21.81C14.2613 22.2594 15.1286 22.5654 16.1169 22.6589L16.1357 22.4598C15.1749 22.3689 14.3437 22.0722 13.7554 21.6478C13.1671 21.2233 12.8292 20.6778 12.8292 20.0845H12.6292ZM16.0263 22.5593V22.6307H16.2263V22.5593H16.0263ZM16.0263 22.6307C16.0263 23.0313 16.3586 23.3517 16.7632 23.3517V23.1517C16.4643 23.1517 16.2263 22.9161 16.2263 22.6307H16.0263ZM16.7632 23.3517C17.1679 23.3517 17.5002 23.0313 17.5002 22.6307H17.3002C17.3002 22.9161 17.0622 23.1517 16.7632 23.1517V23.3517ZM17.5002 22.6307V22.5593H17.3002V22.6307H17.5002ZM17.4096 22.6589C18.3979 22.5654 19.2652 22.2594 19.8881 21.81C20.5111 21.3605 20.8972 20.7609 20.8972 20.0845H20.6972C20.6972 20.6778 20.3594 21.2233 19.7711 21.6478C19.1828 22.0722 18.3515 22.3689 17.3908 22.4598L17.4096 22.6589ZM20.8972 20.0845C20.8972 19.1362 20.4136 18.4913 19.7396 18.0343C19.0703 17.5804 18.2066 17.3064 17.4266 17.0925L17.3737 17.2854C18.1533 17.4992 18.9881 17.7662 19.6274 18.1998C20.2621 18.6302 20.6972 19.2194 20.6972 20.0845H20.8972ZM16.1555 16.7402C15.3731 16.5009 14.8567 16.2761 14.5369 16.0334C14.2237 15.7959 14.1032 15.545 14.1032 15.2406H13.9032C13.9032 15.6156 14.0597 15.9225 14.416 16.1928C14.7655 16.4579 15.3107 16.691 16.097 16.9315L16.1555 16.7402ZM14.1032 15.2406C14.1032 15.04 14.2797 14.7967 14.6474 14.5771C15.0076 14.362 15.5243 14.1874 16.138 14.1147L16.1145 13.9161C15.4787 13.9914 14.9339 14.1731 14.5449 14.4054C14.1634 14.6332 13.9032 14.9284 13.9032 15.2406H14.1032ZM16.0263 14.0154V16.8359H16.2263V14.0154H16.0263ZM17.5002 21.3098V18.4893H17.3002V21.3098H17.5002ZM17.3709 18.5849C18.1534 18.8242 18.6698 19.0491 18.9896 19.2917C19.3027 19.5293 19.4233 19.7801 19.4233 20.0846H19.6233C19.6233 19.7096 19.4667 19.4027 19.1105 19.1324C18.7609 18.8672 18.2157 18.6341 17.4294 18.3937L17.3709 18.5849ZM19.4233 20.0846C19.4233 20.2852 19.2467 20.5285 18.879 20.7481C18.5188 20.9632 18.0021 21.1378 17.3884 21.2105L17.412 21.4091C18.0477 21.3338 18.5926 21.1521 18.9816 20.9198C19.363 20.692 19.6233 20.3967 19.6233 20.0846H19.4233Z" fill="white" mask="url(#path-1-outside-1)"/>
</svg>
