<svg width="34" height="33" viewBox="0 0 34 33" fill="none" xmlns="http://www.w3.org/2000/svg">
<path fill-rule="evenodd" clip-rule="evenodd" d="M3.88562 1.38187C3.88562 1.17097 4.06386 1 4.28372 1H32.9468C33.1667 1 33.3449 1.17097 33.3449 1.38187V29.0039C33.3449 29.2148 33.1667 29.3858 32.9468 29.3858C32.7269 29.3858 32.5487 29.2148 32.5487 29.0039V1.76374H4.28372C4.06386 1.76374 3.88562 1.59277 3.88562 1.38187Z" fill="white"/>
<path fill-rule="evenodd" clip-rule="evenodd" d="M1.11568 6.65749L3.62918 4.14399C3.78342 3.98975 4.03349 3.98975 4.18773 4.14399L6.70122 6.65749C6.85547 6.81173 6.85547 7.0618 6.70122 7.21604C6.54698 7.37028 6.29691 7.37028 6.14267 7.21604L4.30341 5.37678L4.30341 29.4373H3.5135L3.5135 5.37678L1.67424 7.21604C1.51999 7.37028 1.26992 7.37028 1.11568 7.21604C0.96144 7.0618 0.96144 6.81173 1.11568 6.65749Z" fill="white"/>
<path fill-rule="evenodd" clip-rule="evenodd" d="M26.4111 26.6437L28.9377 29.1572C29.0928 29.3115 29.0928 29.5615 28.9377 29.7158L26.4111 32.2293C26.2561 32.3835 26.0047 32.3835 25.8497 32.2293C25.6946 32.075 25.6946 31.825 25.8497 31.6707L27.6985 29.8315H3.51252V29.0415H27.6985L25.8497 27.2023C25.6946 27.048 25.6946 26.798 25.8497 26.6437C26.0047 26.4895 26.2561 26.4895 26.4111 26.6437Z" fill="white"/>
<path fill-rule="evenodd" clip-rule="evenodd" d="M14.7978 1.11568C14.952 1.26992 14.952 1.51999 14.7978 1.67423L10.0583 6.41373C9.90407 6.56797 9.654 6.56797 9.49975 6.41373C9.34551 6.25949 9.34551 6.00941 9.49975 5.85517L14.2392 1.11568C14.3935 0.96144 14.6436 0.96144 14.7978 1.11568Z" fill="white"/>
<path fill-rule="evenodd" clip-rule="evenodd" d="M33.0976 19.9424C33.2518 20.0966 33.2518 20.3467 33.0976 20.5009L28.753 24.8454C28.5988 24.9997 28.3487 24.9997 28.1945 24.8454C28.0402 24.6912 28.0402 24.4411 28.1945 24.2869L32.539 19.9424C32.6933 19.7881 32.9433 19.7881 33.0976 19.9424Z" fill="white"/>
<path fill-rule="evenodd" clip-rule="evenodd" d="M20.7204 1.11391C20.8756 1.26716 20.8772 1.51723 20.724 1.67245L10.4551 12.073C10.3018 12.2282 10.0518 12.2298 9.89653 12.0766C9.74131 11.9233 9.73972 11.6732 9.89298 11.518L20.1619 1.11746C20.3151 0.962245 20.5652 0.960652 20.7204 1.11391Z" fill="white"/>
<path fill-rule="evenodd" clip-rule="evenodd" d="M33.2292 13.3591C33.3834 13.5134 33.3834 13.7634 33.2292 13.9177L23.2236 23.9233C23.0693 24.0775 22.8193 24.0775 22.665 23.9233C22.5108 23.769 22.5108 23.519 22.665 23.3647L32.6706 13.3591C32.8249 13.2049 33.0749 13.2049 33.2292 13.3591Z" fill="white"/>
<path fill-rule="evenodd" clip-rule="evenodd" d="M27.0438 1.24961C27.1968 1.40509 27.1948 1.65515 27.0393 1.80814L10.5827 18.0014C10.4272 18.1544 10.1772 18.1524 10.0242 17.9969C9.87118 17.8414 9.8732 17.5914 10.0287 17.4384L26.4852 1.2451C26.6407 1.09211 26.8908 1.09413 27.0438 1.24961Z" fill="white"/>
<path fill-rule="evenodd" clip-rule="evenodd" d="M33.2293 7.1718C33.3835 7.32604 33.3835 7.57611 33.2293 7.73035L16.641 24.3186C16.4868 24.4728 16.2367 24.4728 16.0825 24.3186C15.9282 24.1643 15.9282 23.9143 16.0825 23.76L32.6707 7.1718C32.8249 7.01756 33.075 7.01756 33.2293 7.1718Z" fill="white"/>
<path fill-rule="evenodd" clip-rule="evenodd" d="M32.9659 1.24734C33.1202 1.40159 33.1202 1.65166 32.9659 1.8059L10.3217 24.4501C10.1675 24.6044 9.91738 24.6044 9.76314 24.4501C9.6089 24.2959 9.6089 24.0458 9.76314 23.8916L32.4074 1.24734C32.5616 1.0931 32.8117 1.0931 32.9659 1.24734Z" fill="white"/>
<path d="M32.5487 1.76374H32.7987C32.7987 1.62567 32.6868 1.51374 32.5487 1.51374V1.76374ZM1.11568 6.65749L1.29246 6.83427L1.29246 6.83427L1.11568 6.65749ZM3.62918 4.14399L3.4524 3.96721L3.4524 3.96721L3.62918 4.14399ZM4.18773 4.14399L4.36451 3.96721L4.36451 3.96721L4.18773 4.14399ZM6.70122 6.65749L6.52445 6.83427L6.52445 6.83427L6.70122 6.65749ZM6.70122 7.21604L6.878 7.39282L6.878 7.39282L6.70122 7.21604ZM6.14267 7.21604L5.96589 7.39282L5.96589 7.39282L6.14267 7.21604ZM4.30341 5.37678L4.48019 5.20001L4.05341 4.77323L4.05341 5.37678L4.30341 5.37678ZM4.30341 29.4373V29.6873H4.55341L4.55341 29.4373L4.30341 29.4373ZM3.5135 29.4373L3.2635 29.4373L3.2635 29.6873H3.5135V29.4373ZM3.5135 5.37678L3.7635 5.37678L3.7635 4.77323L3.33672 5.20001L3.5135 5.37678ZM1.67424 7.21604L1.85101 7.39282L1.85101 7.39282L1.67424 7.21604ZM1.11568 7.21604L0.938903 7.39282L0.938904 7.39282L1.11568 7.21604ZM26.4111 26.6437L26.2348 26.821L26.2348 26.821L26.4111 26.6437ZM28.9377 29.1572L29.1141 28.98L29.1141 28.98L28.9377 29.1572ZM28.9377 29.7158L29.1141 29.893L29.1141 29.893L28.9377 29.7158ZM26.4111 32.2293L26.2348 32.052L26.2348 32.052L26.4111 32.2293ZM25.8497 32.2293L25.6733 32.4065L25.6733 32.4065L25.8497 32.2293ZM25.8497 31.6707L25.6733 31.4935L25.6733 31.4935L25.8497 31.6707ZM27.6985 29.8315L27.8748 30.0087L28.3043 29.5815H27.6985V29.8315ZM3.51252 29.8315H3.26252V30.0815H3.51252V29.8315ZM3.51252 29.0415V28.7915H3.26252V29.0415H3.51252ZM27.6985 29.0415V29.2915H28.3043L27.8748 28.8643L27.6985 29.0415ZM25.8497 27.2023L25.6733 27.3795L25.6733 27.3795L25.8497 27.2023ZM25.8497 26.6437L25.6733 26.4665L25.6733 26.4665L25.8497 26.6437ZM14.7978 1.11568L14.621 1.29246L14.621 1.29246L14.7978 1.11568ZM14.7978 1.67423L14.621 1.49746L14.621 1.49746L14.7978 1.67423ZM10.0583 6.41373L9.88153 6.23695L9.88153 6.23695L10.0583 6.41373ZM9.49975 6.41373L9.67653 6.23695L9.67653 6.23695L9.49975 6.41373ZM9.49975 5.85517L9.67653 6.03195L9.67653 6.03195L9.49975 5.85517ZM14.2392 1.11568L14.416 1.29246L14.416 1.29246L14.2392 1.11568ZM33.0976 19.9424L32.9208 20.1191L32.9208 20.1191L33.0976 19.9424ZM33.0976 20.5009L32.9208 20.3241L32.9208 20.3241L33.0976 20.5009ZM28.753 24.8454L28.9298 25.0222L28.9298 25.0222L28.753 24.8454ZM28.1945 24.8454L28.3713 24.6687L28.3713 24.6687L28.1945 24.8454ZM28.1945 24.2869L28.3713 24.4637L28.3713 24.4637L28.1945 24.2869ZM32.539 19.9424L32.7158 20.1191L32.7158 20.1191L32.539 19.9424ZM20.7204 1.11391L20.5448 1.29181L20.5448 1.29181L20.7204 1.11391ZM20.724 1.67245L20.9019 1.8481L20.9019 1.8481L20.724 1.67245ZM10.4551 12.073L10.2772 11.8974L10.2772 11.8974L10.4551 12.073ZM9.89653 12.0766L10.0722 11.8987L10.0722 11.8987L9.89653 12.0766ZM9.89298 11.518L10.0709 11.6937L10.0709 11.6937L9.89298 11.518ZM20.1619 1.11746L20.3398 1.29311L20.3398 1.29311L20.1619 1.11746ZM33.2292 13.3591L33.406 13.1824L33.406 13.1824L33.2292 13.3591ZM33.2292 13.9177L33.406 14.0945L33.406 14.0945L33.2292 13.9177ZM23.2236 23.9233L23.4004 24.1001L23.4004 24.1001L23.2236 23.9233ZM22.665 23.9233L22.4883 24.1001L22.4883 24.1001L22.665 23.9233ZM22.665 23.3647L22.4883 23.188L22.4883 23.188L22.665 23.3647ZM32.6706 13.3591L32.4938 13.1824L32.4938 13.1824L32.6706 13.3591ZM27.0393 1.80814L26.8639 1.62995L26.8639 1.62995L27.0393 1.80814ZM10.5827 18.0014L10.7581 18.1796L10.7581 18.1796L10.5827 18.0014ZM10.0242 17.9969L10.2024 17.8216L10.2024 17.8216L10.0242 17.9969ZM10.0287 17.4384L9.85333 17.2602L9.85333 17.2602L10.0287 17.4384ZM26.4852 1.2451L26.6606 1.4233L26.6606 1.4233L26.4852 1.2451ZM33.2293 7.1718L33.406 6.99502L33.406 6.99502L33.2293 7.1718ZM33.2293 7.73035L33.406 7.90713L33.406 7.90713L33.2293 7.73035ZM16.641 24.3186L16.8178 24.4954L16.8178 24.4954L16.641 24.3186ZM16.0825 24.3186L15.9057 24.4954L15.9057 24.4954L16.0825 24.3186ZM16.0825 23.76L15.9057 23.5832L15.9057 23.5832L16.0825 23.76ZM32.6707 7.1718L32.4939 6.99502L32.4939 6.99502L32.6707 7.1718ZM32.9659 1.24734L32.7892 1.42412L32.7892 1.42412L32.9659 1.24734ZM32.9659 1.8059L33.1427 1.98268L33.1427 1.98268L32.9659 1.8059ZM10.3217 24.4501L10.4985 24.6269L10.4985 24.6269L10.3217 24.4501ZM9.76314 24.4501L9.93992 24.2734L9.93992 24.2734L9.76314 24.4501ZM9.76314 23.8916L9.58636 23.7148L9.58636 23.7148L9.76314 23.8916ZM32.4074 1.24734L32.2306 1.07057L32.2306 1.07057L32.4074 1.24734ZM4.13562 1.38187C4.13562 1.31874 4.19202 1.25 4.28372 1.25V0.75C3.93569 0.75 3.63562 1.0232 3.63562 1.38187H4.13562ZM4.28372 1.25H32.9468V0.75H4.28372V1.25ZM32.9468 1.25C33.0385 1.25 33.0949 1.31874 33.0949 1.38187H33.5949C33.5949 1.0232 33.2948 0.75 32.9468 0.75V1.25ZM33.0949 1.38187V29.0039H33.5949V1.38187H33.0949ZM33.0949 29.0039C33.0949 29.0671 33.0385 29.1358 32.9468 29.1358V29.6358C33.2948 29.6358 33.5949 29.3626 33.5949 29.0039H33.0949ZM32.9468 29.1358C32.8551 29.1358 32.7987 29.0671 32.7987 29.0039H32.2987C32.2987 29.3626 32.5988 29.6358 32.9468 29.6358V29.1358ZM32.7987 29.0039V1.76374H32.2987V29.0039H32.7987ZM32.5487 1.51374H4.28372V2.01374H32.5487V1.51374ZM4.28372 1.51374C4.19202 1.51374 4.13562 1.445 4.13562 1.38187H3.63562C3.63562 1.74055 3.93569 2.01374 4.28372 2.01374V1.51374ZM1.29246 6.83427L3.80595 4.32077L3.4524 3.96721L0.938904 6.48071L1.29246 6.83427ZM3.80595 4.32077C3.86256 4.26416 3.95434 4.26416 4.01095 4.32077L4.36451 3.96721C4.11263 3.71534 3.70427 3.71534 3.4524 3.96721L3.80595 4.32077ZM4.01095 4.32077L6.52445 6.83427L6.878 6.48071L4.36451 3.96721L4.01095 4.32077ZM6.52445 6.83427C6.58106 6.89087 6.58106 6.98266 6.52445 7.03927L6.878 7.39282C7.12987 7.14095 7.12987 6.73258 6.878 6.48071L6.52445 6.83427ZM6.52445 7.03927C6.46784 7.09588 6.37606 7.09588 6.31945 7.03927L5.96589 7.39282C6.21777 7.64469 6.62613 7.64469 6.878 7.39282L6.52445 7.03927ZM6.31945 7.03927L4.48019 5.20001L4.12663 5.55356L5.96589 7.39282L6.31945 7.03927ZM4.05341 5.37678L4.05341 29.4373L4.55341 29.4373L4.55341 5.37678L4.05341 5.37678ZM4.30341 29.1873H3.5135V29.6873H4.30341V29.1873ZM3.7635 29.4373L3.7635 5.37678L3.2635 5.37678L3.2635 29.4373L3.7635 29.4373ZM3.33672 5.20001L1.49746 7.03927L1.85101 7.39282L3.69027 5.55356L3.33672 5.20001ZM1.49746 7.03927C1.44085 7.09588 1.34907 7.09588 1.29246 7.03927L0.938904 7.39282C1.19078 7.64469 1.59914 7.64469 1.85101 7.39282L1.49746 7.03927ZM1.29246 7.03927C1.23585 6.98266 1.23585 6.89087 1.29246 6.83427L0.938904 6.48071C0.687031 6.73258 0.687033 7.14095 0.938903 7.39282L1.29246 7.03927ZM26.2348 26.821L28.7614 29.3345L29.1141 28.98L26.5874 26.4665L26.2348 26.821ZM28.7614 29.3345C28.8182 29.391 28.8182 29.482 28.7614 29.5385L29.1141 29.893C29.3673 29.641 29.3673 29.232 29.1141 28.98L28.7614 29.3345ZM28.7614 29.5385L26.2348 32.052L26.5874 32.4065L29.1141 29.893L28.7614 29.5385ZM26.2348 32.052C26.1773 32.1093 26.0835 32.1093 26.026 32.052L25.6733 32.4065C25.9259 32.6578 26.3349 32.6578 26.5874 32.4065L26.2348 32.052ZM26.026 32.052C25.9692 31.9955 25.9692 31.9045 26.026 31.848L25.6733 31.4935C25.4201 31.7455 25.4201 32.1545 25.6733 32.4065L26.026 32.052ZM26.026 31.848L27.8748 30.0087L27.5222 29.6542L25.6733 31.4935L26.026 31.848ZM27.6985 29.5815H3.51252V30.0815H27.6985V29.5815ZM3.76252 29.8315V29.0415H3.26252V29.8315H3.76252ZM3.51252 29.2915H27.6985V28.7915H3.51252V29.2915ZM27.8748 28.8643L26.026 27.0251L25.6733 27.3795L27.5222 29.2188L27.8748 28.8643ZM26.026 27.0251C25.9692 26.9685 25.9692 26.8775 26.026 26.821L25.6733 26.4665C25.4201 26.7185 25.4201 27.1275 25.6733 27.3795L26.026 27.0251ZM26.026 26.821C26.0835 26.7637 26.1773 26.7637 26.2348 26.821L26.5874 26.4665C26.3349 26.2152 25.9259 26.2152 25.6733 26.4665L26.026 26.821ZM14.621 1.29246C14.6776 1.34907 14.6776 1.44085 14.621 1.49746L14.9746 1.85101C15.2265 1.59914 15.2265 1.19078 14.9746 0.938904L14.621 1.29246ZM14.621 1.49746L9.88153 6.23695L10.2351 6.5905L14.9746 1.85101L14.621 1.49746ZM9.88153 6.23695C9.82492 6.29356 9.73314 6.29356 9.67653 6.23695L9.32298 6.5905C9.57485 6.84238 9.98321 6.84238 10.2351 6.5905L9.88153 6.23695ZM9.67653 6.23695C9.61992 6.18034 9.61992 6.08856 9.67653 6.03195L9.32298 5.6784C9.07111 5.93027 9.07111 6.33863 9.32298 6.5905L9.67653 6.23695ZM9.67653 6.03195L14.416 1.29246L14.0625 0.938904L9.32298 5.6784L9.67653 6.03195ZM14.416 1.29246C14.4726 1.23585 14.5644 1.23585 14.621 1.29246L14.9746 0.938904C14.7227 0.687032 14.3143 0.687032 14.0625 0.938904L14.416 1.29246ZM32.9208 20.1191C32.9774 20.1757 32.9774 20.2675 32.9208 20.3241L33.2744 20.6777C33.5262 20.4258 33.5262 20.0175 33.2744 19.7656L32.9208 20.1191ZM32.9208 20.3241L28.5763 24.6687L28.9298 25.0222L33.2744 20.6777L32.9208 20.3241ZM28.5763 24.6687C28.5197 24.7253 28.4279 24.7253 28.3713 24.6687L28.0177 25.0222C28.2696 25.2741 28.6779 25.2741 28.9298 25.0222L28.5763 24.6687ZM28.3713 24.6687C28.3147 24.6121 28.3147 24.5203 28.3713 24.4637L28.0177 24.1101C27.7658 24.362 27.7658 24.7704 28.0177 25.0222L28.3713 24.6687ZM28.3713 24.4637L32.7158 20.1191L32.3622 19.7656L28.0177 24.1101L28.3713 24.4637ZM32.7158 20.1191C32.7724 20.0625 32.8642 20.0625 32.9208 20.1191L33.2744 19.7656C33.0225 19.5137 32.6141 19.5137 32.3622 19.7656L32.7158 20.1191ZM20.5448 1.29181C20.6017 1.34805 20.6023 1.43984 20.5461 1.4968L20.9019 1.8481C21.1521 1.59463 21.1495 1.18627 20.8961 0.936008L20.5448 1.29181ZM20.5461 1.4968L10.2772 11.8974L10.633 12.2486L20.9019 1.8481L20.5461 1.4968ZM10.2772 11.8974C10.2209 11.9543 10.1291 11.9549 10.0722 11.8987L9.72089 12.2545C9.97436 12.5047 10.3827 12.5021 10.633 12.2486L10.2772 11.8974ZM10.0722 11.8987C10.0152 11.8424 10.0146 11.7506 10.0709 11.6937L9.71508 11.3424C9.46481 11.5958 9.46742 12.0042 9.72089 12.2545L10.0722 11.8987ZM10.0709 11.6937L20.3398 1.29311L19.984 0.941818L9.71508 11.3424L10.0709 11.6937ZM20.3398 1.29311C20.396 1.23614 20.4878 1.23556 20.5448 1.29181L20.8961 0.936009C20.6426 0.685746 20.2342 0.688347 19.984 0.941818L20.3398 1.29311ZM33.0524 13.5359C33.109 13.5925 33.109 13.6843 33.0524 13.7409L33.406 14.0945C33.6578 13.8426 33.6578 13.4342 33.406 13.1824L33.0524 13.5359ZM33.0524 13.7409L23.0468 23.7465L23.4004 24.1001L33.406 14.0945L33.0524 13.7409ZM23.0468 23.7465C22.9902 23.8031 22.8984 23.8031 22.8418 23.7465L22.4883 24.1001C22.7401 24.3519 23.1485 24.3519 23.4004 24.1001L23.0468 23.7465ZM22.8418 23.7465C22.7852 23.6899 22.7852 23.5981 22.8418 23.5415L22.4883 23.188C22.2364 23.4398 22.2364 23.8482 22.4883 24.1001L22.8418 23.7465ZM22.8418 23.5415L32.8474 13.5359L32.4938 13.1824L22.4883 23.188L22.8418 23.5415ZM32.8474 13.5359C32.904 13.4793 32.9958 13.4793 33.0524 13.5359L33.406 13.1824C33.1541 12.9305 32.7457 12.9305 32.4938 13.1824L32.8474 13.5359ZM26.8656 1.42495C26.9217 1.48202 26.921 1.57379 26.8639 1.62995L27.2146 1.98634C27.4685 1.73651 27.4718 1.32816 27.222 1.07426L26.8656 1.42495ZM26.8639 1.62995L10.4074 17.8232L10.7581 18.1796L27.2146 1.98634L26.8639 1.62995ZM10.4074 17.8232C10.3503 17.8794 10.2585 17.8786 10.2024 17.8216L9.84597 18.1722C10.0958 18.4261 10.5042 18.4294 10.7581 18.1796L10.4074 17.8232ZM10.2024 17.8216C10.1462 17.7645 10.147 17.6727 10.204 17.6166L9.85333 17.2602C9.59944 17.51 9.59614 17.9184 9.84597 18.1722L10.2024 17.8216ZM10.204 17.6166L26.6606 1.4233L26.3099 1.06691L9.85333 17.2602L10.204 17.6166ZM26.6606 1.4233C26.7177 1.36715 26.8094 1.36789 26.8656 1.42495L27.222 1.07426C26.9721 0.820367 26.5638 0.817072 26.3099 1.06691L26.6606 1.4233ZM33.0525 7.34858C33.1091 7.40518 33.1091 7.49697 33.0525 7.55358L33.406 7.90713C33.6579 7.65526 33.6579 7.24689 33.406 6.99502L33.0525 7.34858ZM33.0525 7.55358L16.4643 24.1418L16.8178 24.4954L33.406 7.90713L33.0525 7.55358ZM16.4643 24.1418C16.4076 24.1984 16.3159 24.1984 16.2593 24.1418L15.9057 24.4954C16.1576 24.7472 16.5659 24.7472 16.8178 24.4954L16.4643 24.1418ZM16.2593 24.1418C16.2026 24.0852 16.2026 23.9934 16.2593 23.9368L15.9057 23.5832C15.6538 23.8351 15.6538 24.2435 15.9057 24.4954L16.2593 24.1418ZM16.2593 23.9368L32.8475 7.34858L32.4939 6.99502L15.9057 23.5832L16.2593 23.9368ZM32.8475 7.34858C32.9041 7.29197 32.9959 7.29197 33.0525 7.34858L33.406 6.99502C33.1542 6.74315 32.7458 6.74315 32.4939 6.99502L32.8475 7.34858ZM32.7892 1.42412C32.8458 1.48073 32.8458 1.57251 32.7892 1.62912L33.1427 1.98268C33.3946 1.7308 33.3946 1.32244 33.1427 1.07057L32.7892 1.42412ZM32.7892 1.62912L10.1449 24.2734L10.4985 24.6269L33.1427 1.98268L32.7892 1.62912ZM10.1449 24.2734C10.0883 24.33 9.99653 24.33 9.93992 24.2734L9.58636 24.6269C9.83824 24.8788 10.2466 24.8788 10.4985 24.6269L10.1449 24.2734ZM9.93992 24.2734C9.88331 24.2168 9.88331 24.125 9.93992 24.0684L9.58636 23.7148C9.33449 23.9667 9.33449 24.375 9.58636 24.6269L9.93992 24.2734ZM9.93992 24.0684L32.5842 1.42412L32.2306 1.07057L9.58636 23.7148L9.93992 24.0684ZM32.5842 1.42412C32.6408 1.36751 32.7325 1.36751 32.7892 1.42412L33.1427 1.07057C32.8908 0.818696 32.4825 0.818697 32.2306 1.07057L32.5842 1.42412Z" fill="white"/>
</svg>
